SplineFontDB: 3.0
FontName: Neuton-Extralight
FullName: Neuton Extralight
FamilyName: Neuton
Weight: Extralight
Copyright: Copyright (c) 2010, 2011 Brian M Zick (http://21326.info/), \nwith Reserved Font Name "Neuton".\n\nThis Font Software is licensed under the SIL Open Font License, Version 1.1.This license is available with a FAQ at: http://scripts.sil.org/OFL\n   WITHOUT WARRANTIES OR CONDITIONS OF ANY KIND, either express or implied.\n   See the License for the specific language governing permissions and\n   limitations under the License.
UComments: "Neuton is a dark, dutch-inspired, compact text serif, intended for use on screen. Neuton is Brian Zick's debut font, and includes text figures, an extended character set, and smooth, readable forms. Neuton works well in any size, as well as in print." 
Version: 1.41
ItalicAngle: 0
UnderlinePosition: -361
UnderlineWidth: 0
Ascent: 1638
Descent: 410
LayerCount: 2
Layer: 0 0 "Back"  1
Layer: 1 0 "Fore"  0
NeedsXUIDChange: 1
FSType: 0
OS2Version: 1
OS2_WeightWidthSlopeOnly: 0
OS2_UseTypoMetrics: 0
CreationTime: 1304912001
ModificationTime: 1316630150
PfmFamily: 17
TTFWeight: 200
TTFWidth: 5
LineGap: 0
VLineGap: 0
Panose: 2 0 2 3 0 0 0 0 0 0
OS2TypoAscent: 2106
OS2TypoAOffset: 0
OS2TypoDescent: -485
OS2TypoDOffset: 0
OS2TypoLinegap: 0
OS2WinAscent: 2106
OS2WinAOffset: 0
OS2WinDescent: 485
OS2WinDOffset: 0
HheadAscent: 2106
HheadAOffset: 0
HheadDescent: -485
HheadDOffset: 0
OS2Vendor: 'PfEd'
Lookup: 1 0 0 "'sups' Superscript lookup 0"  {"'sups' Superscript lookup 0 subtable" ("superior" ) } ['sups' ('DFLT' <'dflt' > ) ]
MarkAttachClasses: 1
DEI: 91125

StartChar: A
Encoding: 65 65 0
Width: 1413
VWidth: 0
Flags: MW
LayerCount: 2
Fore
SplineSet
108 0 m 1
 113 42 l 1
 255 72 l 1
 693 1254 l 1
 746 1268 l 1
 1161 66 l 1
 1293 47 l 1
 1285 1 l 1
 876 1 l 1
 885 43 l 1
 1051 73 l 1
 912 478 l 1
 480 478 l 1
 332 65 l 1
 516 46 l 1
 507 0 l 1
 108 0 l 1
500 534 m 1
 893 534 l 1
 700 1085 l 1
 500 534 l 1
EndSplineSet
Colour: ffffff
EndChar

StartChar: AE
Encoding: 198 198 1
Width: 1688
VWidth: 0
Flags: MW
LayerCount: 2
Fore
SplineSet
42 3 m 1
 46 43 l 1
 189 73 l 1
 843 1180 l 1
 610 1205 l 1
 616 1244 l 1
 1603 1244 l 1
 1571 925 l 1
 1527 931 l 1
 1506 1193 l 1
 972 1193 l 1
 972 659 l 1
 1314 659 l 1
 1350 798 l 1
 1399 806 l 1
 1366 417 l 1
 1319 408 l 1
 1302 605 l 1
 972 605 l 1
 972 54 l 1
 1536 54 l 1
 1607 323 l 1
 1649 313 l 1
 1619 0 l 1
 665 0 l 1
 671 42 l 1
 864 72 l 1
 864 472 l 1
 515 472 l 1
 279 66 l 1
 463 48 l 1
 453 3 l 1
 42 3 l 1
553 537 m 1
 867 537 l 1
 867 1093 l 1
 553 537 l 1
EndSplineSet
Colour: ffffff
EndChar

StartChar: Aogonek
Encoding: 260 260 9
Width: 1413
VWidth: 0
Flags: MW
LayerCount: 2
Fore
SplineSet
108 0 m 1
 113 42 l 1
 255 72 l 1
 693 1254 l 1
 746 1268 l 1
 1161 66 l 1
 1293 47 l 1
 1285 1 l 1
 1278 1 l 1
 1215 -76 1200 -121 1200 -166 c 0
 1200 -248 1250 -300 1341 -353 c 1
 1308 -387 l 1
 1164 -372 1102 -294 1102 -209 c 0
 1102 -156 1123 -98 1228 1 c 1
 876 1 l 1
 885 43 l 1
 1051 73 l 1
 912 478 l 1
 480 478 l 1
 332 65 l 1
 516 46 l 1
 507 0 l 1
 108 0 l 1
500 534 m 1
 893 534 l 1
 700 1085 l 1
 500 534 l 1
EndSplineSet
Colour: ffffff
EndChar

StartChar: B
Encoding: 66 66 12
Width: 1123
VWidth: 0
Flags: MW
LayerCount: 2
Fore
SplineSet
115 0 m 1
 123 42 l 1
 292 72 l 1
 292 1153 l 1
 120 1175 l 1
 130 1211 l 1
 276 1233 396 1257 573 1257 c 0
 836 1257 970 1118 970 967 c 0
 970 831 881 743 763 678 c 1
 763 672 l 1
 969 661 1075 513 1075 380 c 0
 1075 185 957 0 540 0 c 2
 115 0 l 1
393 54 m 1
 639 54 l 2
 898 54 969 208 969 347 c 0
 969 471 895 631 649 631 c 2
 393 631 l 1
 393 54 l 1
393 680 m 1
 703 680 l 1
 776 727 868 815 868 933 c 0
 868 1121 731 1212 515 1212 c 0
 489 1212 420 1212 393 1206 c 1
 393 680 l 1
EndSplineSet
Colour: ffffff
EndChar

StartChar: C
Encoding: 67 67 13
Width: 1071
VWidth: 0
Flags: MW
LayerCount: 2
Fore
SplineSet
154 607 m 0
 154 903 334 1271 717 1271 c 0
 850 1271 960 1244 1057 1171 c 1
 1026 834 l 1
 979 842 l 1
 949 1101 l 1
 903 1161 829 1215 670 1215 c 0
 452 1215 260 984 260 643 c 0
 260 269 423 54 711 54 c 0
 865 54 1007 150 1089 243 c 1
 1112 206 l 1
 1049 112 881 -26 665 -26 c 0
 359 -26 154 222 154 607 c 0
EndSplineSet
Colour: ffffff
EndChar

StartChar: D
Encoding: 68 68 18
Width: 1322
VWidth: 0
Flags: MW
LayerCount: 2
Fore
SplineSet
115 0 m 1
 123 42 l 1
 292 72 l 1
 292 1153 l 1
 120 1175 l 1
 130 1211 l 1
 327 1242 458 1259 604 1259 c 0
 1089 1259 1266 951 1266 655 c 0
 1266 313 1059 0 546 0 c 2
 115 0 l 1
393 54 m 1
 573 54 l 2
 927 54 1158 287 1158 625 c 0
 1158 1001 942 1205 567 1205 c 0
 525 1205 435 1207 393 1201 c 1
 393 54 l 1
EndSplineSet
Colour: ffffff
EndChar

StartChar: Dcroat
Encoding: 272 272 20
Width: 1322
VWidth: 0
Flags: MW
LayerCount: 2
Fore
SplineSet
111 592 m 1
 120 653 l 1
 292 664 l 1
 292 1153 l 1
 120 1175 l 1
 130 1211 l 1
 327 1242 458 1259 604 1259 c 0
 1112 1259 1275 963 1275 655 c 0
 1275 313 1059 0 546 0 c 2
 115 0 l 1
 123 42 l 1
 292 72 l 1
 292 605 l 1
 111 592 l 1
393 54 m 1
 573 54 l 2
 927 54 1161 267 1161 599 c 0
 1161 962 956 1205 567 1205 c 0
 525 1205 435 1207 393 1201 c 1
 393 672 l 1
 680 691 l 1
 672 631 l 1
 393 612 l 1
 393 54 l 1
EndSplineSet
Colour: ffffff
EndChar

StartChar: E
Encoding: 69 69 21
Width: 1071
VWidth: 0
Flags: MW
LayerCount: 2
Fore
SplineSet
118 1202 m 1
 125 1244 l 1
 1031 1244 l 1
 1000 925 l 1
 954 931 l 1
 935 1193 l 1
 401 1193 l 1
 401 659 l 1
 736 659 l 5
 773 798 l 5
 827 806 l 1
 794 417 l 1
 743 408 l 5
 727 605 l 5
 401 605 l 1
 401 54 l 1
 963 54 l 1
 1037 323 l 1
 1078 313 l 1
 1048 0 l 1
 121 0 l 1
 127 42 l 1
 297 72 l 1
 297 1175 l 1
 118 1202 l 1
EndSplineSet
Colour: ffffff
EndChar

StartChar: Eng
Encoding: 330 330 29
Width: 1377
VWidth: 0
Flags: MW
LayerCount: 2
Fore
SplineSet
76 1208 m 1
 84 1244 l 1
 387 1244 l 1
 1078 179 l 1
 1078 1180 l 1
 895 1205 l 1
 901 1244 l 1
 1325 1244 l 1
 1317 1205 l 1
 1151 1182 l 1
 1151 151 l 2
 1151 -100 1063 -259 930 -353 c 2
 885 -384 l 1
 852 -335 l 1
 946 -265 1031 -158 1052 50 c 1
 335 1133 l 1
 335 65 l 1
 519 46 l 1
 509 0 l 1
 88 0 l 1
 94 42 l 1
 261 72 l 1
 261 1175 l 1
 76 1208 l 1
EndSplineSet
Colour: ffffff
EndChar

StartChar: Eth
Encoding: 208 208 31
Width: 1322
VWidth: 0
Flags: MW
LayerCount: 2
Fore
SplineSet
111 592 m 1
 120 653 l 1
 292 664 l 1
 292 1153 l 1
 120 1175 l 1
 130 1211 l 1
 327 1242 458 1259 604 1259 c 0
 1112 1259 1275 963 1275 655 c 0
 1275 313 1059 0 546 0 c 2
 115 0 l 1
 123 42 l 1
 292 72 l 1
 292 605 l 1
 111 592 l 1
393 54 m 1
 573 54 l 2
 927 54 1161 267 1161 599 c 0
 1161 962 956 1205 567 1205 c 0
 525 1205 435 1207 393 1201 c 1
 393 672 l 1
 680 691 l 1
 672 631 l 1
 393 612 l 1
 393 54 l 1
EndSplineSet
Colour: ffffff
EndChar

StartChar: Euro
Encoding: 8364 8364 32
Width: 1071
VWidth: 0
Flags: MW
LayerCount: 2
Fore
SplineSet
-37 517 m 1
 -36 584 l 1
 760 584 l 1
 747 517 l 1
 -37 517 l 1
-31 693 m 1
 -29 758 l 1
 806 758 l 1
 793 693 l 1
 -31 693 l 1
139 584 m 0
 139 961 312 1271 684 1271 c 0
 817 1271 893 1244 990 1171 c 1
 958 834 l 1
 914 842 l 1
 884 1101 l 1
 844 1168 793 1206 680 1206 c 0
 408 1206 262 979 262 616 c 0
 262 231 425 43 679 43 c 0
 742 43 833 80 899 172 c 1
 931 432 l 1
 975 438 l 1
 1006 103 l 1
 888 20 791 -26 627 -26 c 0
 341 -26 139 215 139 584 c 0
EndSplineSet
Colour: ffffff
EndChar

StartChar: Euro.osf
Encoding: 65536 -1 33
Width: 1071
VWidth: 0
Flags: MW
LayerCount: 2
Fore
SplineSet
7 358 m 1
 15 425 l 1
 595 425 l 1
 582 358 l 1
 7 358 l 1
15 509 m 1
 19 574 l 1
 628 574 l 1
 616 509 l 1
 15 509 l 1
139 444 m 0
 139 719 304 972 576 972 c 0
 651 972 729 949 813 899 c 1
 783 614 l 1
 736 622 l 1
 707 831 l 1
 656 883 596 908 535 908 c 0
 347 908 262 710 262 477 c 0
 262 249 367 42 581 42 c 0
 638 42 687 63 723 105 c 1
 752 317 l 1
 798 323 l 1
 829 54 l 1
 769 4 671 -24 571 -24 c 0
 293 -24 139 183 139 444 c 0
EndSplineSet
Colour: ffffff
EndChar

StartChar: F
Encoding: 70 70 34
Width: 1181
VWidth: 0
Flags: MW
LayerCount: 2
Fore
SplineSet
111 1202 m 1
 118 1244 l 1
 1024 1244 l 1
 991 922 l 1
 942 930 l 1
 921 1193 l 1
 391 1193 l 1
 391 633 l 1
 724 633 l 1
 763 773 l 1
 819 780 l 1
 788 392 l 1
 733 384 l 1
 715 580 l 1
 391 580 l 1
 391 70 l 1
 637 53 l 1
 625 0 l 1
 115 0 l 1
 118 42 l 1
 288 72 l 1
 288 1175 l 1
 111 1202 l 1
EndSplineSet
Colour: ffffff
EndChar

StartChar: G
Encoding: 71 71 35
Width: 1413
VWidth: 0
Flags: MW
LayerCount: 2
Fore
SplineSet
154 604 m 0
 154 909 369 1262 752 1262 c 0
 885 1262 1038 1233 1135 1160 c 1
 1105 842 l 1
 1060 847 l 1
 1029 1083 l 1
 983 1143 878 1203 719 1203 c 0
 438 1203 268 956 268 633 c 0
 268 343 395 45 764 45 c 0
 856 45 948 65 1024 118 c 1
 1026 492 l 1
 785 517 l 1
 791 556 l 1
 1271 556 l 1
 1264 517 l 1
 1130 496 l 1
 1130 79 l 1
 997 0 860 -20 660 -20 c 0
 384 -20 154 219 154 604 c 0
EndSplineSet
Colour: ffffff
EndChar

StartChar: H
Encoding: 72 72 39
Width: 1413
VWidth: 0
Flags: MW
LayerCount: 2
Fore
SplineSet
117 1205 m 1
 120 1244 l 1
 576 1244 l 1
 571 1205 l 1
 402 1182 l 1
 402 651 l 1
 1120 651 l 1
 1120 1180 l 1
 936 1205 l 1
 943 1244 l 1
 1398 1244 l 1
 1390 1205 l 1
 1223 1182 l 1
 1223 65 l 1
 1406 46 l 1
 1399 0 l 1
 946 0 l 1
 954 42 l 1
 1120 72 l 1
 1120 591 l 1
 402 591 l 1
 402 65 l 1
 588 46 l 1
 577 0 l 1
 125 0 l 1
 130 42 l 1
 297 72 l 1
 297 1180 l 1
 117 1205 l 1
EndSplineSet
Colour: ffffff
EndChar

StartChar: Hbar
Encoding: 294 294 40
Width: 1413
VWidth: 0
Flags: MW
LayerCount: 2
Fore
SplineSet
123 943 m 1
 132 1012 l 1
 325 1012 l 1
 358 1006 l 1
 1165 1006 l 1
 1184 1012 l 1
 1378 1012 l 1
 1371 943 l 1
 1189 943 l 1
 1165 952 l 1
 353 952 l 1
 325 943 l 1
 123 943 l 1
EndSplineSet
Refer: 39 72 N 1 0 0 1 0 0 2
Colour: ffffff
EndChar

StartChar: I
Encoding: 73 73 41
Width: 692
VWidth: 0
Flags: MW
LayerCount: 2
Fore
SplineSet
121 1205 m 1
 127 1244 l 1
 584 1244 l 5
 577 1205 l 1
 402 1182 l 1
 402 65 l 1
 595 46 l 1
 586 0 l 1
 131 0 l 1
 136 42 l 1
 294 72 l 1
 294 1180 l 1
 121 1205 l 1
EndSplineSet
Colour: ffffff
EndChar

StartChar: J
Encoding: 74 74 50
Width: 589
VWidth: 0
Flags: MW
LayerCount: 2
Fore
SplineSet
42 -281 m 1
 209 -139 293 0 293 282 c 2
 293 1180 l 1
 113 1205 l 1
 118 1244 l 1
 577 1244 l 1
 571 1205 l 1
 404 1182 l 1
 400 360 l 2
 397 -30 314 -151 64 -325 c 1
 42 -281 l 1
EndSplineSet
Colour: ffffff
EndChar

StartChar: K
Encoding: 75 75 51
Width: 1212
VWidth: 0
Flags: MW
LayerCount: 2
Fore
SplineSet
120 1205 m 1
 125 1244 l 1
 574 1244 l 1
 571 1205 l 1
 401 1182 l 1
 401 65 l 1
 587 46 l 1
 576 0 l 1
 130 0 l 1
 136 42 l 1
 293 72 l 1
 293 1180 l 1
 120 1205 l 1
455 619 m 1
 498 665 536 704 602 783 c 2
 933 1180 l 1
 760 1205 l 1
 764 1244 l 1
 1171 1244 l 1
 1168 1205 l 1
 1015 1182 l 1
 559 629 l 1
 821 321 l 2
 964 153 1049 72 1169 54 c 2
 1223 46 l 1
 1211 3 l 1
 1165 -12 1147 -22 1105 -22 c 0
 972 -22 877 89 760 230 c 2
 457 604 l 1
 455 619 l 1
EndSplineSet
Colour: ffffff
EndChar

StartChar: L
Encoding: 76 76 53
Width: 1079
VWidth: 0
Flags: MW
LayerCount: 2
Fore
SplineSet
131 0 m 1
 136 42 l 1
 305 72 l 1
 305 1178 l 1
 133 1203 l 1
 137 1243 l 1
 592 1243 l 1
 588 1203 l 1
 412 1182 l 1
 412 54 l 1
 942 54 l 1
 1019 338 l 1
 1063 330 l 1
 1031 0 l 1
 131 0 l 1
EndSplineSet
Colour: ffffff
EndChar

StartChar: Lslash
Encoding: 321 321 57
Width: 1079
VWidth: 0
Flags: MW
LayerCount: 2
Fore
SplineSet
118 475 m 5
 131 558 l 5
 622 843 l 5
 609 763 l 5
 118 475 l 5
EndSplineSet
Refer: 53 76 N 1 0 0 1 0 0 2
Colour: ffffff
EndChar

StartChar: M
Encoding: 77 77 58
Width: 1661
VWidth: 0
Flags: MW
LayerCount: 2
Fore
SplineSet
78 0 m 5
 83 33 l 5
 250 64 l 5
 333 1175 l 5
 149 1208 l 5
 156 1244 l 5
 475 1244 l 5
 546 1056 l 5
 860 227 l 5
 1218 1099 l 5
 1279 1244 l 5
 1605 1244 l 5
 1600 1208 l 5
 1428 1178 l 5
 1483 57 l 5
 1663 40 l 5
 1661 0 l 5
 1199 0 l 5
 1205 33 l 5
 1376 64 l 5
 1319 1169 l 5
 854 60 l 5
 804 50 l 5
 396 1151 l 5
 317 57 l 5
 498 40 l 5
 492 0 l 5
 78 0 l 5
EndSplineSet
Colour: ffffff
EndChar

StartChar: N
Encoding: 78 78 59
Width: 1413
VWidth: 0
Flags: MW
LayerCount: 2
Fore
SplineSet
76 1208 m 1
 84 1244 l 1
 387 1244 l 1
 1078 179 l 1
 1078 1180 l 1
 895 1205 l 1
 901 1244 l 1
 1325 1244 l 1
 1317 1205 l 1
 1151 1182 l 1
 1151 -7 l 1
 1097 -18 l 1
 335 1133 l 1
 335 65 l 1
 519 46 l 1
 509 0 l 1
 88 0 l 1
 94 42 l 1
 261 72 l 1
 261 1175 l 1
 76 1208 l 1
EndSplineSet
Colour: ffffff
EndChar

StartChar: O
Encoding: 79 79 64
Width: 1320
VWidth: 0
Flags: MW
LayerCount: 2
Fore
SplineSet
162 620 m 4
 162 1005 389 1274 752 1274 c 4
 1094 1274 1273 996 1273 627 c 4
 1273 321 1089 -27 683 -27 c 4
 366 -27 162 267 162 620 c 4
272 679 m 4
 272 310 438 37 731 37 c 4
 1021 37 1165 330 1165 573 c 4
 1165 954 990 1218 704 1218 c 4
 411 1218 272 940 272 679 c 4
EndSplineSet
Colour: ffffff
EndChar

StartChar: OE
Encoding: 338 338 65
Width: 1649
VWidth: 0
Flags: MW
LayerCount: 2
Fore
SplineSet
64 620 m 0
 64 1005 292 1274 655 1274 c 0
 716 1274 779 1265 832 1245 c 1
 1483 1244 l 1
 1453 925 l 1
 1407 931 l 1
 1386 1193 l 1
 894 1193 l 1
 894 659 l 1
 1192 659 l 1
 1229 798 l 1
 1280 806 l 1
 1246 417 l 1
 1200 408 l 1
 1182 605 l 1
 894 605 l 1
 894 54 l 1
 1416 54 l 1
 1488 323 l 1
 1531 313 l 1
 1499 0 l 1
 785 0 l 1
 719 -15 650 -27 586 -27 c 0
 269 -27 64 267 64 620 c 0
172 679 m 0
 172 310 346 31 632 31 c 0
 692 31 742 41 788 63 c 1
 788 1151 l 1
 735 1196 676 1218 607 1218 c 0
 314 1218 172 940 172 679 c 0
EndSplineSet
Colour: ffffff
EndChar

StartChar: Oslash
Encoding: 216 216 73
Width: 1330
VWidth: 0
Flags: MW
LayerCount: 2
Fore
SplineSet
124 127 m 1
 271 255 l 1
 309 276 l 1
 1087 1012 l 1
 1111 1048 l 1
 1226 1161 l 5
 1314 1127 l 1
 1165 1005 l 1
 1120 976 l 1
 333 229 l 1
 309 199 l 1
 208 92 l 1
 124 127 l 1
272 679 m 0
 272 310 441 37 731 37 c 0
 1021 37 1165 330 1165 573 c 0
 1165 954 990 1218 704 1218 c 0
 411 1218 272 940 272 679 c 0
162 620 m 0
 162 1005 389 1274 752 1274 c 0
 1094 1274 1273 1004 1273 627 c 0
 1273 321 1089 -27 683 -27 c 0
 366 -27 162 267 162 620 c 0
EndSplineSet
Colour: ffffff
EndChar

StartChar: P
Encoding: 80 80 75
Width: 1160
VWidth: 0
Flags: MW
LayerCount: 2
Fore
SplineSet
120 0 m 1
 125 42 l 1
 283 72 l 1
 283 1153 l 1
 121 1175 l 1
 130 1211 l 1
 260 1231 362 1256 534 1256 c 0
 797 1256 1018 1147 1018 893 c 0
 1018 648 782 482 532 482 c 0
 517 482 497 481 482 484 c 1
 472 526 l 1
 526 529 l 2
 793 541 894 695 894 873 c 0
 894 1045 766 1212 503 1212 c 0
 461 1212 393 1206 393 1206 c 1
 393 66 l 1
 627 46 l 1
 619 0 l 1
 120 0 l 1
EndSplineSet
Colour: ffffff
EndChar

StartChar: Q
Encoding: 81 81 76
Width: 1330
VWidth: 0
Flags: MW
LayerCount: 2
Fore
SplineSet
171 615 m 0
 171 994 386 1274 749 1274 c 0
 1091 1274 1280 963 1280 627 c 0
 1280 356 1098 54 813 -12 c 1
 926 -257 1060 -298 1252 -313 c 1
 1249 -319 1246 -352 1243 -358 c 1
 1210 -373 1147 -385 1090 -385 c 0
 914 -385 797 -217 763 -22 c 1
 737 -25 710 -25 683 -25 c 0
 405 -25 171 262 171 615 c 0
275 660 m 0
 275 297 489 33 770 27 c 1
 987 72 1176 309 1176 573 c 0
 1176 969 990 1218 704 1218 c 0
 423 1218 275 984 275 660 c 0
EndSplineSet
Colour: ffffff
EndChar

StartChar: R
Encoding: 82 82 77
Width: 1181
VWidth: 0
Flags: MW
LayerCount: 2
Fore
SplineSet
160 0 m 5
 167 42 l 5
 323 72 l 5
 323 1153 l 5
 163 1174 l 5
 172 1210 l 5
 321 1234 448 1253 597 1253 c 4
 815 1253 997 1155 997 960 c 4
 997 824 930 713 721 610 c 5
 721 609 l 5
 914 323 l 6
 1063 103 1109 74 1175 50 c 6
 1223 34 l 5
 1217 -3 l 5
 1174 -18 1161 -18 1124 -18 c 4
 1008 -18 934 90 843 238 c 6
 640 571 l 5
 426 571 l 5
 426 65 l 5
 637 46 l 5
 627 0 l 5
 160 0 l 5
426 627 m 5
 653 627 l 5
 782 675 887 797 887 933 c 4
 887 1114 755 1207 547 1207 c 4
 493 1207 426 1202 426 1202 c 5
 426 627 l 5
EndSplineSet
Colour: ffffff
EndChar

StartChar: S
Encoding: 83 83 81
Width: 860
VWidth: 0
Flags: MW
LayerCount: 2
Fore
SplineSet
94 116 m 1
 124 401 l 1
 172 393 l 1
 200 174 l 1
 245 87 363 37 476 37 c 0
 600 37 716 113 716 262 c 0
 716 561 143 609 143 959 c 0
 143 1158 315 1271 475 1271 c 0
 583 1271 700 1236 767 1161 c 1
 734 851 l 1
 688 858 l 1
 661 1101 l 1
 625 1167 531 1214 449 1214 c 0
 337 1214 241 1137 241 1006 c 0
 241 689 826 631 826 308 c 0
 826 119 672 -26 424 -26 c 0
 280 -26 158 37 94 116 c 1
EndSplineSet
Colour: ffffff
EndChar

StartChar: T
Encoding: 84 84 86
Width: 1121
VWidth: 0
Flags: MW
LayerCount: 2
Fore
SplineSet
87 1244 m 5
 1120 1244 l 5
 1085 912 l 5
 1035 918 l 5
 1018 1193 l 5
 647 1193 l 5
 647 73 l 5
 824 46 l 5
 813 0 l 5
 360 0 l 5
 365 42 l 5
 540 72 l 5
 540 1193 l 5
 184 1193 l 5
 149 914 l 5
 97 922 l 5
 87 1244 l 5
EndSplineSet
Colour: ffffff
EndChar

StartChar: Tbar
Encoding: 358 358 87
Width: 1121
VWidth: 0
Flags: MW
LayerCount: 2
Fore
SplineSet
255 591 m 5
 263 652 l 5
 938 652 l 5
 931 591 l 5
 255 591 l 5
EndSplineSet
Refer: 86 84 N 1 0 0 1 0 0 2
Colour: ffffff
EndChar

StartChar: Thorn
Encoding: 222 222 91
Width: 692
VWidth: 0
Flags: MW
LayerCount: 2
Fore
SplineSet
113 1205 m 1
 118 1244 l 1
 576 1244 l 1
 571 1205 l 1
 393 1182 l 1
 393 1021 l 1
 435 1024 492 1024 534 1024 c 0
 802 1024 1018 915 1018 660 c 0
 1018 410 785 248 535 248 c 0
 518 248 499 247 482 250 c 1
 472 293 l 1
 526 296 l 2
 793 308 894 462 894 640 c 0
 894 812 766 979 503 979 c 0
 461 979 393 972 393 972 c 1
 393 66 l 1
 627 46 l 1
 619 0 l 1
 120 0 l 1
 125 42 l 1
 283 72 l 1
 286 1180 l 1
 113 1205 l 1
EndSplineSet
Colour: ffffff
EndChar

StartChar: U
Encoding: 85 85 92
Width: 1341
VWidth: 0
Flags: MW
LayerCount: 2
Fore
SplineSet
100 1205 m 1
 104 1244 l 1
 558 1244 l 1
 554 1205 l 1
 385 1182 l 1
 385 495 l 2
 385 150 537 42 757 42 c 0
 984 42 1117 182 1117 449 c 2
 1117 1180 l 1
 931 1205 l 1
 936 1244 l 1
 1361 1244 l 1
 1353 1205 l 1
 1187 1182 l 1
 1184 490 l 2
 1183 165 1059 -27 724 -27 c 0
 494 -27 281 75 281 462 c 2
 281 1180 l 1
 100 1205 l 1
EndSplineSet
Colour: ffffff
EndChar

StartChar: V
Encoding: 86 86 106
Width: 1282
VWidth: 0
Flags: MW
LayerCount: 2
Fore
SplineSet
98 1208 m 1
 102 1244 l 1
 526 1244 l 1
 522 1208 l 1
 354 1182 l 1
 700 160 l 1
 1077 1178 l 1
 891 1208 l 1
 894 1244 l 1
 1284 1244 l 1
 1280 1208 l 1
 1151 1182 l 1
 710 -11 l 1
 659 -26 l 1
 245 1178 l 1
 98 1208 l 1
EndSplineSet
Colour: ffffff
EndChar

StartChar: W
Encoding: 87 87 107
Width: 1957
VWidth: 0
Flags: MW
LayerCount: 2
Fore
SplineSet
98 1207 m 1
 105 1244 l 1
 498 1244 l 1
 495 1212 l 1
 330 1182 l 1
 616 178 l 1
 915 1202 l 1
 961 1208 l 1
 1244 178 l 1
 1568 1175 l 1
 1381 1210 l 1
 1386 1244 l 1
 1769 1244 l 1
 1766 1208 l 1
 1648 1178 l 1
 1254 -13 l 1
 1189 -26 l 1
 921 990 l 1
 626 -13 l 1
 555 -25 l 1
 220 1178 l 1
 98 1207 l 1
EndSplineSet
Colour: ffffff
EndChar

StartChar: X
Encoding: 88 88 112
Width: 1196
VWidth: 0
Flags: MW
LayerCount: 2
Fore
SplineSet
-3 0 m 1
 3 36 l 1
 127 64 l 1
 543 625 l 1
 154 1184 l 1
 18 1212 l 1
 22 1244 l 1
 442 1244 l 1
 437 1212 l 1
 281 1182 l 1
 613 703 l 1
 970 1184 l 1
 798 1207 l 1
 803 1244 l 1
 1171 1244 l 1
 1171 1208 l 1
 1045 1187 l 1
 649 651 l 1
 1063 53 l 1
 1200 36 l 1
 1193 0 l 1
 768 0 l 1
 772 27 l 1
 935 60 l 1
 581 571 l 1
 206 60 l 1
 371 42 l 1
 363 0 l 1
 -3 0 l 1
EndSplineSet
Colour: ffffff
EndChar

StartChar: Y
Encoding: 89 89 113
Width: 1103
VWidth: 0
Flags: MW
LayerCount: 2
Fore
SplineSet
4 1207 m 1
 8 1243 l 1
 425 1243 l 1
 421 1207 l 1
 255 1181 l 1
 568 571 l 1
 878 1178 l 1
 693 1208 l 1
 695 1244 l 1
 1085 1244 l 1
 1082 1208 l 1
 953 1182 l 1
 604 489 l 1
 604 67 l 1
 785 46 l 1
 777 0 l 1
 317 0 l 1
 323 42 l 1
 498 72 l 1
 498 489 l 1
 143 1177 l 1
 4 1207 l 1
EndSplineSet
Colour: ffffff
EndChar

StartChar: Z
Encoding: 90 90 118
Width: 1005
VWidth: 0
Flags: MW
LayerCount: 2
Fore
SplineSet
43 37 m 1
 845 1189 l 1
 209 1189 l 1
 131 903 l 1
 91 914 l 1
 100 1244 l 1
 976 1244 l 1
 981 1207 l 1
 176 58 l 1
 843 58 l 1
 949 342 l 1
 993 335 l 1
 953 0 l 1
 48 0 l 1
 43 37 l 1
EndSplineSet
Colour: ffffff
EndChar

StartChar: a
Encoding: 97 97 122
Width: 864
VWidth: 0
Flags: MW
LayerCount: 2
Fore
SplineSet
138 169 m 4
 138 331 282 458 601 477 c 5
 601 516 l 6
 601 725 564 826 410 826 c 4
 299 826 269 730 254 609 c 5
 211 609 172 631 172 676 c 4
 172 779 327 877 463 877 c 4
 617 877 691 780 691 569 c 6
 691 229 l 6
 691 137 692 65 779 50 c 6
 845 37 l 5
 840 3 l 5
 820 -6 781 -18 739 -18 c 4
 657 -18 614 45 614 117 c 6
 614 130 l 5
 609 130 l 5
 587 69 485 -26 346 -26 c 4
 240 -26 138 46 138 169 c 4
238 199 m 4
 238 117 290 43 378 43 c 4
 474 43 555 106 601 185 c 5
 601 432 l 5
 401 403 238 358 238 199 c 4
EndSplineSet
Colour: ffffff
EndChar

StartChar: acute
Encoding: 180 180 127
Width: 613
VWidth: 0
Flags: MW
LayerCount: 2
Fore
SplineSet
227 1370 m 1
 359 1707 l 1
 455 1668 l 1
 272 1344 l 1
 227 1370 l 1
EndSplineSet
Colour: ffffff
EndChar

StartChar: ae
Encoding: 230 230 129
Width: 1257
VWidth: 0
Flags: MW
LayerCount: 2
Fore
SplineSet
138 169 m 0
 138 331 268 430 600 467 c 1
 600 538 l 2
 600 747 562 825 408 825 c 0
 297 825 268 730 253 609 c 1
 210 609 172 628 172 673 c 0
 172 776 324 875 463 875 c 0
 561 875 652 826 679 718 c 1
 752 835 857 874 954 874 c 0
 1100 874 1187 784 1187 573 c 0
 1187 542 1180 487 1171 451 c 1
 685 429 l 1
 685 209 773 53 981 53 c 0
 1076 53 1148 90 1195 137 c 1
 1213 104 l 1
 1156 29 1058 -29 925 -29 c 0
 825 -29 678 51 632 169 c 1
 615 105 504 -27 345 -27 c 0
 239 -27 138 46 138 169 c 0
236 196 m 0
 236 114 289 42 377 42 c 0
 479 42 600 128 600 248 c 2
 600 424 l 1
 400 395 236 355 236 196 c 0
686 476 m 1
 1073 514 l 1
 1082 536 1083 592 1083 607 c 0
 1083 725 1002 818 905 818 c 0
 774 818 686 683 686 476 c 1
EndSplineSet
Colour: ffffff
EndChar

StartChar: ampersand
Encoding: 38 38 132
Width: 1282
VWidth: 0
Flags: MW
LayerCount: 2
Fore
SplineSet
78 243 m 0
 78 433 242 556 396 672 c 1
 326 757 245 869 245 975 c 0
 245 1131 360 1272 520 1272 c 0
 674 1272 773 1175 773 1021 c 0
 773 879 652 781 520 683 c 1
 520 680 l 1
 775 385 l 1
 963 721 l 1
 802 752 l 1
 804 786 l 1
 1220 786 l 1
 1215 752 l 1
 1047 723 l 1
 824 332 l 1
 960 154 1077 76 1169 47 c 2
 1215 34 l 1
 1208 -3 l 1
 1165 -18 1154 -20 1117 -20 c 0
 1019 -20 923 53 870 116 c 2
 767 236 l 1
 682 111 561 -20 365 -20 c 0
 187 -20 78 98 78 243 c 0
190 281 m 0
 190 161 285 65 408 65 c 0
 538 65 637 158 721 290 c 1
 438 622 l 1
 435 622 l 1
 305 525 190 426 190 281 c 0
323 1026 m 0
 323 936 398 829 477 731 c 1
 586 813 674 896 674 1000 c 0
 674 1115 592 1212 492 1212 c 0
 390 1212 323 1122 323 1026 c 0
EndSplineSet
Colour: ffffff
EndChar

StartChar: ampersand.osf
Encoding: 65537 -1 133
Width: 1282
VWidth: 0
Flags: MW
LayerCount: 2
Fore
SplineSet
167 200 m 1
 167 463 628 516 628 763 c 0
 628 842 579 917 486 917 c 0
 410 917 356 862 356 775 c 0
 356 683 448 585 521 498 c 2
 711 269 l 2
 849 102 910 73 997 47 c 2
 1044 34 l 1
 1038 -3 l 1
 995 -18 980 -20 943 -20 c 0
 888 -20 806 -3 714 109 c 2
 422 465 l 2
 346 557 268 648 268 750 c 0
 268 861 378 971 505 971 c 0
 643 971 722 889 722 789 c 0
 722 522 281 442 281 236 c 0
 281 116 347 47 449 47 c 0
 623 47 719 208 842 520 c 1
 718 550 l 1
 721 583 l 1
 1062 583 l 1
 1058 550 l 1
 917 523 l 1
 779 237 725 -20 408 -20 c 0
 230 -20 168 98 167 200 c 1
EndSplineSet
Colour: ffffff
EndChar

StartChar: asciicircum
Encoding: 94 94 137
Width: 746
VWidth: 0
Flags: MW
LayerCount: 2
Fore
SplineSet
57 826 m 1
 345 1238 l 1
 401 1251 l 1
 695 824 l 1
 656 796 l 1
 372 1123 l 1
 363 1123 l 1
 90 802 l 1
 57 826 l 1
EndSplineSet
Colour: ffffff
EndChar

StartChar: asciitilde
Encoding: 126 126 138
Width: 946
VWidth: 0
Flags: MW
LayerCount: 2
Fore
SplineSet
82 422 m 1
 82 422 145 662 321 614 c 2
 670 516 l 2
 770 489 822 620 822 620 c 1
 868 619 l 1
 868 619 799 371 622 419 c 2
 274 516 l 2
 182 542 121 408 121 408 c 1
 82 422 l 1
EndSplineSet
Colour: ffffff
EndChar

StartChar: asterisk
Encoding: 42 42 139
Width: 377
VWidth: 0
Flags: MW
LayerCount: 2
Fore
SplineSet
374 1289 m 1
 483 1280 l 1
 458 973 l 5
 751 1097 l 1
 776 990 l 1
 476 923 l 5
 683 680 l 1
 591 623 l 1
 434 893 l 1
 265 616 l 1
 182 684 l 1
 386 919 l 1
 76 990 l 1
 118 1093 l 1
 402 970 l 1
 374 1289 l 1
EndSplineSet
Colour: ffffff
EndChar

StartChar: at
Encoding: 64 64 140
Width: 1357
VWidth: 0
Flags: MW
LayerCount: 2
Fore
SplineSet
121 333 m 0
 121 691 372 1044 790 1044 c 0
 1071 1044 1302 847 1302 573 c 0
 1302 302 1107 69 833 69 c 0
 774 69 783 131 786 188 c 1
 777 188 l 1
 737 128 641 60 565 60 c 0
 472 60 418 153 418 325 c 0
 418 609 613 790 782 790 c 0
 835 790 863 785 921 772 c 1
 936 752 l 1
 894 385 l 2
 873 206 857 136 905 136 c 0
 1059 136 1218 280 1218 540 c 0
 1218 812 988 988 752 988 c 0
 440 988 211 721 211 358 c 0
 211 46 403 -163 730 -163 c 0
 880 -163 1051 -83 1097 -43 c 1
 1118 -82 l 1
 1031 -146 914 -227 693 -227 c 0
 388 -227 121 -32 121 333 c 0
507 369 m 0
 507 218 540 138 591 138 c 0
 644 138 752 203 788 243 c 1
 843 714 l 1
 816 723 759 725 728 725 c 0
 603 725 507 577 507 369 c 0
EndSplineSet
Colour: ffffff
EndChar

StartChar: b
Encoding: 98 98 142
Width: 966
VWidth: 0
Flags: MW
LayerCount: 2
Fore
SplineSet
51 1221 m 1
 57 1252 l 1
 296 1271 l 1
 301 1262 l 1
 301 824 l 1
 286 721 l 1
 299 721 l 1
 378 809 480 874 593 874 c 0
 786 874 906 711 906 460 c 0
 906 143 689 -24 429 -24 c 0
 338 -24 278 0 206 48 c 1
 206 1190 l 1
 51 1221 l 1
301 98 m 1
 343 56 418 37 505 37 c 0
 641 37 802 180 802 404 c 0
 802 673 716 802 526 802 c 0
 451 802 380 748 301 664 c 1
 301 98 l 1
EndSplineSet
Colour: ffffff
EndChar

StartChar: backslash
Encoding: 92 92 143
Width: 543
VWidth: 0
Flags: MW
LayerCount: 2
Fore
SplineSet
27 1244 m 1
 110 1241 l 1
 571 -358 l 1
 492 -354 l 1
 27 1244 l 1
EndSplineSet
Colour: ffffff
EndChar

StartChar: bar
Encoding: 124 124 144
Width: 564
VWidth: 0
Flags: MW
LayerCount: 2
Fore
SplineSet
274 -368 m 1
 274 1260 l 1
 350 1248 l 1
 350 -380 l 1
 274 -368 l 1
EndSplineSet
Colour: ffffff
EndChar

StartChar: braceright
Encoding: 125 125 146
Width: 663
VWidth: 0
Flags: MW
LayerCount: 2
Fore
SplineSet
42 -378 m 1
 48 -329 l 1
 149 -323 l 1
 377 -314 124 385 453 437 c 1
 453 441 l 1
 124 524 378 1189 160 1200 c 1
 54 1207 l 1
 46 1256 l 1
 149 1256 l 2
 557 1256 219 506 520 470 c 2
 569 463 l 1
 569 414 l 1
 516 408 l 2
 217 374 558 -378 144 -378 c 2
 42 -378 l 1
EndSplineSet
Colour: ffffff
EndChar

StartChar: bracketright
Encoding: 93 93 148
Width: 478
VWidth: 0
Flags: MW
LayerCount: 2
Fore
SplineSet
48 -333 m 1
 306 -312 l 1
 306 1182 l 1
 51 1203 l 1
 54 1256 l 1
 416 1256 l 1
 416 -374 l 1
 54 -374 l 1
 48 -333 l 1
EndSplineSet
Colour: ffffff
EndChar

StartChar: breve
Encoding: 728 728 149
Width: 626
VWidth: 0
Flags: MW
LayerCount: 2
Fore
SplineSet
121 1553 m 1
 151 1577 l 1
 175 1531 227 1450 311 1450 c 0
 398 1450 453 1529 480 1579 c 1
 503 1558 l 1
 474 1470 421 1375 311 1375 c 0
 193 1375 143 1466 121 1553 c 1
EndSplineSet
Colour: ffffff
EndChar

StartChar: brokenbar
Encoding: 166 166 150
Width: 564
VWidth: 0
Flags: MW
LayerCount: 2
Fore
SplineSet
279 -374 m 1
 279 414 l 1
 348 410 l 1
 348 -380 l 1
 279 -374 l 1
279 535 m 1
 279 1253 l 1
 347 1248 l 1
 344 529 l 1
 279 535 l 1
EndSplineSet
Colour: ffffff
EndChar

StartChar: c
Encoding: 99 99 152
Width: 779
VWidth: 0
Flags: MW
LayerCount: 2
Fore
SplineSet
132 395 m 0
 132 692 290 875 507 875 c 0
 676 875 728 785 728 706 c 0
 728 660 711 627 663 612 c 1
 617 748 564 813 459 813 c 0
 341 813 232 696 232 453 c 0
 232 154 344 45 517 45 c 0
 616 45 704 97 752 144 c 1
 770 111 l 1
 722 36 599 -29 469 -29 c 0
 247 -29 132 156 132 395 c 0
EndSplineSet
Colour: ffffff
EndChar

StartChar: caron
Encoding: 711 711 154
Width: 651
VWidth: 0
Flags: MW
LayerCount: 2
Fore
SplineSet
123 1537 m 1
 178 1586 l 1
 344 1417 l 1
 353 1417 l 1
 496 1582 l 1
 532 1555 l 1
 358 1371 l 1
 302 1357 l 1
 123 1537 l 1
EndSplineSet
Colour: ffffff
EndChar

StartChar: cedilla
Encoding: 184 184 158
Width: 380
VWidth: 0
Flags: MW
LayerCount: 2
Fore
SplineSet
91 -347 m 1
 149 -327 209 -276 209 -247 c 0
 209 -182 159 -154 123 -118 c 1
 208 3 l 1
 267 3 l 1
 212 -76 l 1
 249 -109 301 -161 301 -227 c 0
 301 -306 220 -354 102 -390 c 1
 91 -347 l 1
EndSplineSet
Colour: ffffff
EndChar

StartChar: cent
Encoding: 162 162 159
Width: 797
VWidth: 0
Flags: MW
LayerCount: 2
Back
SplineSet
113.135 349.123 m 4
 113.135 603.157 247.788 769.736 433.802 769.736 c 4
 578.17 769.736 622.591 692.694 622.591 625.367 c 4
 622.591 585.805 609.404 558.736 567.76 545.549 c 5
 528.196 662.154 483.08 718.375 392.851 718.375 c 4
 291.515 718.375 198.507 605.934 198.507 398.403 c 4
 198.507 142.98 306.09 40.9512 442.824 40.9512 c 4
 527.501 40.9512 602.463 82.5967 644.108 123.547 c 5
 659.378 95.0898 l 5
 617.733 31.2334 512.232 -24.9873 401.179 -24.9873 c 4
 211.694 -24.9873 113.135 144.368 113.135 349.123 c 4
345.652 954.363 m 1
 436.577 968.938 l 1
 415.756 739.197 l 1
 372.722 739.197 l 1
 345.652 954.363 l 1
354.676 -228.353 m 1
 376.886 0 l 1
 418.531 0 l 1
 446.989 -214.472 l 1
 354.676 -228.353 l 1
EndSplineSet
Fore
SplineSet
132 408 m 0
 132 705 290 899 507 899 c 0
 676 899 728 810 728 731 c 0
 728 685 711 653 663 638 c 1
 617 774 564 840 459 840 c 0
 341 840 232 708 232 465 c 0
 232 166 357 47 517 47 c 0
 616 47 704 97 752 144 c 1
 770 111 l 1
 722 36 599 -29 469 -29 c 0
 247 -29 132 169 132 408 c 0
404 1115 m 1
 510 1133 l 1
 486 863 l 1
 436 863 l 1
 404 1115 l 1
414 -267 m 1
 441 0 l 1
 489 0 l 1
 522 -250 l 1
 414 -267 l 1
EndSplineSet
Colour: ffffff
EndChar

StartChar: circumflex
Encoding: 710 710 160
Width: 646
VWidth: 0
Flags: MW
LayerCount: 2
Fore
SplineSet
121 1388 m 1
 288 1569 l 1
 342 1582 l 1
 521 1396 l 1
 489 1359 l 1
 308 1494 l 1
 299 1494 l 1
 142 1358 l 1
 121 1388 l 1
EndSplineSet
Colour: ffffff
EndChar

StartChar: colon
Encoding: 58 58 161
Width: 398
VWidth: 0
Flags: MW
LayerCount: 2
Fore
SplineSet
142 734 m 0
 142 797 162 829 205 829 c 0
 248 829 267 798 267 734 c 0
 267 668 252 631 206 631 c 0
 160 631 142 670 142 734 c 0
145 103 m 0
 145 166 165 200 208 200 c 0
 251 200 271 167 271 103 c 0
 271 37 254 0 208 0 c 0
 162 0 145 39 145 103 c 0
EndSplineSet
Colour: ffffff
EndChar

StartChar: comma
Encoding: 44 44 162
Width: 360
VWidth: 0
Flags: MW
LayerCount: 2
Fore
SplineSet
54 -236 m 1
 197 -179 232 -112 232 -30 c 0
 232 57 182 112 123 112 c 0
 114 112 105 112 96 108 c 1
 93 117 93 118 93 127 c 0
 93 182 132 218 189 218 c 0
 265 218 332 147 332 9 c 0
 332 -85 275 -215 66 -281 c 1
 54 -236 l 1
EndSplineSet
Colour: ffffff
EndChar

StartChar: commaaccent
Encoding: 806 806 163
Width: 360
VWidth: 0
Flags: MW
LayerCount: 2
Fore
SplineSet
6 -353 m 1
 85 -334 132 -294 132 -241 c 0
 132 -176 84 -155 27 -151 c 1
 27 -121 58 -85 104 -85 c 0
 161 -85 208 -127 208 -206 c 0
 208 -269 163 -363 22 -390 c 1
 6 -353 l 1
EndSplineSet
Colour: ffffff
EndChar

StartChar: copyright
Encoding: 169 169 164
Width: 1377
VWidth: 0
Flags: MW
LayerCount: 2
Fore
SplineSet
91 620 m 0
 91 1018 350 1281 689 1281 c 0
 1067 1281 1308 1016 1308 623 c 0
 1308 233 1065 -27 680 -27 c 0
 315 -27 91 231 91 620 c 0
159 631 m 0
 159 286 377 31 689 31 c 0
 1008 31 1243 278 1243 613 c 0
 1243 966 1008 1226 691 1226 c 0
 379 1226 159 973 159 631 c 0
EndSplineSet
Refer: 152 99 S 0.82 0 0 0.82 299 286 2
Colour: ffffff
EndChar

StartChar: currency
Encoding: 164 164 165
Width: 774
VWidth: 0
Flags: MW
LayerCount: 2
Fore
SplineSet
99 734 m 1
 149 782 l 1
 227 693 l 1
 270 729 348 772 396 772 c 0
 450 772 531 730 571 701 c 1
 649 783 l 1
 691 730 l 1
 607 656 l 1
 629 619 660 539 660 493 c 0
 660 442 627 364 600 327 c 1
 693 241 l 1
 641 193 l 1
 562 283 l 1
 516 256 436 220 390 220 c 0
 350 220 280 252 238 278 c 1
 160 190 l 1
 111 239 l 1
 195 317 l 1
 168 359 134 439 134 492 c 0
 134 538 166 611 190 647 c 1
 99 734 l 1
208 496 m 0
 208 372 282 288 393 288 c 0
 509 288 587 371 587 489 c 0
 587 616 509 700 391 700 c 0
 280 700 208 617 208 496 c 0
EndSplineSet
Colour: ffffff
EndChar

StartChar: d
Encoding: 100 100 166
Width: 1005
VWidth: 0
Flags: MW
LayerCount: 2
Fore
SplineSet
130 386 m 0
 130 693 330 877 546 877 c 0
 612 877 707 851 740 825 c 1
 750 825 l 1
 734 960 l 1
 734 1190 l 1
 581 1221 l 1
 587 1252 l 1
 825 1272 l 1
 833 1262 l 1
 833 229 l 2
 833 73 885 59 922 50 c 2
 982 37 l 1
 976 1 l 1
 956 -8 927 -20 881 -20 c 0
 789 -20 752 42 752 124 c 2
 752 131 l 1
 742 131 l 1
 685 53 580 -22 442 -22 c 0
 265 -22 130 119 130 386 c 0
230 442 m 0
 230 209 312 47 497 47 c 0
 581 47 690 114 742 190 c 1
 742 704 l 1
 683 780 592 818 496 818 c 0
 365 818 230 695 230 442 c 0
EndSplineSet
Colour: ffffff
EndChar

StartChar: dagger
Encoding: 8224 8224 167
Width: 898
VWidth: 0
Flags: MW
LayerCount: 2
Fore
SplineSet
118 734 m 1
 127 810 l 1
 424 803 l 1
 414 1256 l 1
 508 1244 l 1
 497 803 l 1
 803 810 l 1
 796 730 l 1
 497 740 l 1
 514 -363 l 1
 408 -351 l 1
 424 742 l 1
 118 734 l 1
EndSplineSet
Colour: ffffff
EndChar

StartChar: daggerdbl
Encoding: 8225 8225 168
Width: 898
VWidth: 0
Flags: MW
LayerCount: 2
Fore
SplineSet
118 734 m 1
 127 809 l 1
 423 802 l 1
 413 1256 l 1
 507 1244 l 1
 496 802 l 1
 801 809 l 1
 793 729 l 1
 496 739 l 1
 488 429 l 1
 496 154 l 1
 807 162 l 1
 801 87 l 1
 496 97 l 1
 502 -363 l 1
 410 -353 l 1
 420 97 l 1
 134 87 l 1
 139 169 l 1
 420 157 l 1
 426 498 l 1
 423 740 l 1
 118 734 l 1
EndSplineSet
Colour: ffffff
EndChar

StartChar: dcroat
Encoding: 273 273 170
Width: 1005
VWidth: 0
Flags: MW
LayerCount: 2
Fore
SplineSet
130 386 m 0
 130 693 330 877 546 877 c 0
 612 877 707 851 740 825 c 1
 750 825 l 1
 734 960 l 1
 734 1190 l 1
 581 1221 l 1
 587 1252 l 1
 825 1272 l 1
 833 1262 l 1
 833 229 l 2
 833 73 885 59 922 50 c 2
 982 37 l 1
 976 1 l 1
 956 -8 927 -20 881 -20 c 0
 789 -20 752 42 752 124 c 2
 752 131 l 1
 742 131 l 1
 685 53 580 -22 442 -22 c 0
 265 -22 130 119 130 386 c 0
230 442 m 0
 230 209 312 47 497 47 c 0
 581 47 690 114 742 190 c 1
 742 704 l 1
 683 780 592 818 496 818 c 0
 365 818 230 695 230 442 c 0
470 1011 m 1
 478 1063 l 1
 976 1063 l 1
 969 1011 l 1
 470 1011 l 1
EndSplineSet
Colour: ffffff
EndChar

StartChar: degree
Encoding: 176 176 171
Width: 424
VWidth: 0
Flags: MW
LayerCount: 2
Fore
SplineSet
32 1107 m 0
 32 1210 117 1304 225 1304 c 0
 341 1304 396 1237 396 1128 c 0
 396 1013 307 928 201 928 c 0
 99 928 32 990 32 1107 c 0
93 1129 m 0
 93 1026 142 967 217 967 c 0
 277 967 334 1023 334 1105 c 0
 334 1200 284 1265 211 1265 c 0
 137 1265 93 1212 93 1129 c 0
EndSplineSet
Colour: ffffff
EndChar

StartChar: dieresis
Encoding: 168 168 172
Width: 683
VWidth: 0
Flags: MW
LayerCount: 2
Fore
SplineSet
154 1465 m 0
 154 1515 170 1543 209 1543 c 0
 246 1543 267 1516 267 1465 c 0
 267 1412 253 1384 211 1384 c 0
 169 1384 154 1414 154 1465 c 0
423 1465 m 0
 423 1515 438 1543 477 1543 c 0
 514 1543 535 1516 535 1465 c 0
 535 1412 520 1384 478 1384 c 0
 436 1384 423 1414 423 1465 c 0
EndSplineSet
Colour: ffffff
EndChar

StartChar: dieresiscomb
Encoding: 776 776 173
Width: 0
VWidth: 0
Flags: MW
LayerCount: 2
Fore
SplineSet
154 1465 m 0
 154 1515 170 1543 209 1543 c 0
 246 1543 267 1516 267 1465 c 0
 267 1412 253 1384 211 1384 c 0
 169 1384 154 1414 154 1465 c 0
423 1465 m 0
 423 1515 438 1543 477 1543 c 0
 514 1543 535 1516 535 1465 c 0
 535 1412 520 1384 478 1384 c 0
 436 1384 423 1414 423 1465 c 0
EndSplineSet
Colour: ffffff
EndChar

StartChar: divide
Encoding: 247 247 174
Width: 984
VWidth: 0
Flags: MW
LayerCount: 2
Fore
SplineSet
82 476 m 1
 94 541 l 1
 906 541 l 1
 895 476 l 1
 82 476 l 1
426 224 m 0
 426 287 443 317 486 317 c 0
 529 317 553 288 553 224 c 0
 553 158 534 120 488 120 c 0
 442 120 426 160 426 224 c 0
426 789 m 0
 426 852 443 885 486 885 c 0
 529 885 553 853 553 789 c 0
 553 723 534 685 488 685 c 0
 442 685 426 725 426 789 c 0
EndSplineSet
Colour: ffffff
EndChar

StartChar: dollar
Encoding: 36 36 175
Width: 860
VWidth: 0
Flags: MW
LayerCount: 2
Fore
SplineSet
94 116 m 1
 124 401 l 1
 172 393 l 1
 200 174 l 1
 245 87 363 37 476 37 c 0
 600 37 716 113 716 262 c 0
 716 561 143 609 143 959 c 0
 143 1158 315 1271 475 1271 c 0
 583 1271 700 1236 767 1161 c 1
 734 851 l 1
 688 858 l 1
 661 1101 l 1
 625 1167 531 1214 449 1214 c 0
 337 1214 241 1137 241 1006 c 0
 241 689 826 631 826 308 c 0
 826 119 672 -26 424 -26 c 0
 280 -26 158 37 94 116 c 1
396 -179 m 1
 408 9 l 1
 426 54 l 1
 426 632 l 1
 431 700 l 1
 431 1208 l 1
 414 1244 l 1
 404 1396 l 1
 513 1411 l 5
 498 1244 l 1
 480 1205 l 1
 480 666 l 1
 482 583 l 1
 482 54 l 1
 500 20 l 1
 514 -164 l 1
 396 -179 l 1
EndSplineSet
Colour: ffffff
EndChar

StartChar: dollar.osf
Encoding: 65538 -1 176
Width: 860
VWidth: 0
Flags: MW
LayerCount: 2
Fore
SplineSet
92 178 m 0
 92 235 136 259 172 268 c 1
 198 92 253 15 389 15 c 0
 489 15 555 103 555 169 c 0
 555 358 142 411 142 672 c 0
 142 790 218 899 396 899 c 0
 526 899 613 808 613 716 c 0
 613 646 575 630 543 627 c 1
 534 663 l 2
 492 822 433 855 372 855 c 0
 276 855 220 812 220 728 c 0
 220 499 645 451 645 216 c 0
 645 67 510 -36 356 -36 c 0
 215 -36 92 51 92 178 c 0
323 -197 m 1
 335 -15 l 1
 426 -6 l 1
 438 -179 l 1
 323 -197 l 1
330 1042 m 1
 438 1060 l 1
 426 891 l 1
 342 891 l 1
 330 1042 l 1
EndSplineSet
Colour: ffffff
EndChar

StartChar: dotaccent
Encoding: 729 729 177
Width: 484
VWidth: 0
Flags: MW
LayerCount: 2
Fore
SplineSet
230 1479 m 0
 230 1542 250 1576 293 1576 c 0
 336 1576 356 1543 356 1479 c 0
 356 1413 339 1376 293 1376 c 0
 247 1376 230 1415 230 1479 c 0
EndSplineSet
Colour: ffffff
EndChar

StartChar: dotaccentcomb
Encoding: 775 775 178
Width: 0
VWidth: 0
Flags: MW
LayerCount: 2
Fore
SplineSet
169 1454 m 0
 169 1517 185 1549 228 1549 c 0
 271 1549 293 1518 293 1454 c 0
 293 1388 275 1350 229 1350 c 0
 183 1350 169 1390 169 1454 c 0
EndSplineSet
Colour: ffffff
EndChar

StartChar: dotbelowcomb
Encoding: 803 803 179
Width: 398
VWidth: 0
Flags: MW
LayerCount: 2
Fore
SplineSet
43 -278 m 0
 43 -215 61 -181 104 -181 c 0
 147 -181 169 -214 169 -278 c 0
 169 -344 151 -380 105 -380 c 0
 59 -380 43 -342 43 -278 c 0
EndSplineSet
Colour: ffffff
EndChar

StartChar: dotlessi
Encoding: 305 305 180
Width: 570
VWidth: 0
Flags: MW
LayerCount: 2
Fore
SplineSet
123 0 m 1
 136 31 l 1
 286 59 l 1
 286 812 l 1
 133 842 l 1
 136 867 l 1
 372 888 l 1
 380 880 l 1
 380 59 l 1
 540 33 l 1
 529 0 l 1
 123 0 l 1
EndSplineSet
Colour: ffffff
EndChar

StartChar: e
Encoding: 101 101 181
Width: 821
VWidth: 0
Flags: MW
LayerCount: 2
Fore
SplineSet
136 411 m 0
 136 710 315 874 508 874 c 0
 654 874 740 793 740 582 c 0
 740 551 731 487 722 451 c 1
 239 444 l 1
 239 224 326 53 534 53 c 0
 629 53 703 90 750 137 c 1
 767 104 l 1
 710 29 610 -29 477 -29 c 0
 287 -29 136 109 136 411 c 0
241 492 m 1
 628 514 l 1
 637 531 638 579 638 605 c 0
 638 725 559 818 459 818 c 0
 329 818 241 701 241 492 c 1
EndSplineSet
Colour: ffffff
EndChar

StartChar: eight
Encoding: 56 56 188
Width: 1000
VWidth: 0
Flags: MW
LayerCount: 2
Fore
SplineSet
200 281 m 0
 200 394 274 513 426 605 c 1
 426 610 l 1
 299 698 245 797 245 914 c 0
 245 1073 360 1202 553 1202 c 0
 743 1202 826 1077 826 926 c 0
 826 772 736 676 640 610 c 1
 639 607 l 1
 801 504 880 410 880 281 c 0
 880 98 702 -27 514 -27 c 0
 330 -27 200 109 200 281 c 0
290 319 m 0
 290 137 452 33 558 33 c 0
 707 33 791 118 791 230 c 0
 791 345 726 414 465 580 c 1
 378 526 290 430 290 319 c 0
320 955 m 0
 320 846 381 783 597 634 c 1
 664 684 746 773 746 891 c 0
 746 1032 632 1156 526 1156 c 0
 410 1156 320 1082 320 955 c 0
EndSplineSet
Substitution2: "'sups' Superscript lookup 0 subtable" eight.superior
Colour: ffffff
EndChar

StartChar: eight.osf
Encoding: 65539 -1 189
Width: 825
VWidth: 0
Flags: MW
LayerCount: 2
Fore
SplineSet
79 281 m 0
 79 394 161 506 306 605 c 1
 306 610 l 1
 179 698 125 797 125 914 c 0
 125 1073 238 1202 431 1202 c 0
 621 1202 704 1077 704 926 c 0
 704 772 613 676 517 610 c 1
 516 607 l 1
 678 504 758 410 758 281 c 0
 758 98 579 -27 391 -27 c 0
 207 -27 79 109 79 281 c 0
170 319 m 0
 170 137 332 33 438 33 c 0
 587 33 672 118 672 230 c 0
 672 345 606 414 345 580 c 1
 258 526 170 450 170 319 c 0
200 955 m 0
 200 846 260 783 476 634 c 1
 543 684 626 773 626 891 c 0
 626 1032 511 1156 405 1156 c 0
 289 1156 200 1082 200 955 c 0
EndSplineSet
Colour: ffffff
EndChar

StartChar: emdash
Encoding: 8212 8212 192
Width: 1297
VWidth: 0
Flags: MW
LayerCount: 2
Fore
SplineSet
85 430 m 1
 98 493 l 1
 1217 498 l 1
 1205 437 l 1
 85 430 l 1
EndSplineSet
Colour: ffffff
EndChar

StartChar: emptyset
Encoding: 8709 8709 193
Width: 985
VWidth: 0
Flags: MW
LayerCount: 2
Fore
SplineSet
3 87 m 1
 129 183 l 1
 149 194 l 1
 777 757 l 1
 793 779 l 1
 895 889 l 1
 945 813 l 1
 829 723 l 1
 815 718 l 1
 179 149 l 1
 166 127 l 1
 53 9 l 1
 3 87 l 1
24 444 m 0
 24 698 249 931 482 931 c 0
 762 931 936 715 936 444 c 0
 936 187 761 -37 483 -37 c 0
 228 -37 24 152 24 444 c 0
111 444 m 0
 111 172 300 27 484 27 c 0
 695 27 848 165 848 444 c 0
 848 715 674 861 482 861 c 0
 271 861 111 698 111 444 c 0
EndSplineSet
Colour: ffffff
EndChar

StartChar: endash
Encoding: 8211 8211 194
Width: 788
VWidth: 0
Flags: MW
LayerCount: 2
Fore
SplineSet
85 430 m 1
 97 493 l 1
 706 498 l 1
 697 437 l 1
 85 430 l 1
EndSplineSet
Colour: ffffff
EndChar

StartChar: eng
Encoding: 331 331 195
Width: 967
VWidth: 0
Flags: MW
LayerCount: 2
Fore
SplineSet
120 0 m 1
 127 31 l 1
 281 57 l 1
 281 788 l 1
 127 815 l 1
 129 843 l 1
 363 863 l 1
 369 854 l 1
 365 717 l 1
 372 717 l 1
 418 778 552 880 693 880 c 0
 811 880 914 802 914 584 c 2
 914 149 l 2
 913 -101 824 -259 691 -353 c 2
 646 -384 l 1
 614 -335 l 1
 722 -253 819 -122 819 149 c 2
 819 559 l 2
 819 736 738 801 653 801 c 0
 535 801 479 765 374 665 c 1
 374 57 l 1
 516 36 l 1
 510 0 l 1
 120 0 l 1
EndSplineSet
Colour: ffffff
EndChar

StartChar: equal
Encoding: 61 61 197
Width: 791
VWidth: 0
Flags: MW
LayerCount: 2
Fore
SplineSet
82 340 m 1
 94 405 l 1
 709 405 l 1
 698 340 l 1
 82 340 l 1
85 580 m 1
 98 645 l 1
 711 645 l 1
 700 580 l 1
 85 580 l 1
EndSplineSet
Colour: ffffff
EndChar

StartChar: eth
Encoding: 240 240 198
Width: 949
VWidth: 0
Flags: MW
LayerCount: 2
Fore
SplineSet
160 451 m 0
 160 747 280 949 492 949 c 0
 610 949 703 858 732 782 c 1
 739 783 l 1
 710 901 648 1012 584 1099 c 1
 335 1048 l 1
 347 1099 l 1
 553 1141 l 1
 489 1221 428 1276 401 1302 c 1
 467 1302 l 1
 525 1265 581 1216 632 1157 c 1
 794 1192 l 1
 785 1141 l 1
 667 1117 l 1
 785 963 873 745 873 465 c 0
 873 157 732 -27 517 -27 c 0
 274 -27 160 208 160 451 c 0
261 498 m 0
 261 185 390 29 541 29 c 0
 695 29 772 210 772 425 c 0
 772 742 616 893 480 893 c 2
 476 893 l 1
 322 890 261 693 261 498 c 0
EndSplineSet
Colour: ffffff
EndChar

StartChar: exclam
Encoding: 33 33 199
Width: 481
VWidth: 0
Flags: MW
LayerCount: 2
Fore
SplineSet
209 66 m 0
 209 120 232 159 266 159 c 0
 302 159 326 120 326 66 c 0
 326 8 312 -33 267 -33 c 0
 225 -33 209 12 209 66 c 0
215 1253 m 0
 215 1280 248 1294 284 1294 c 0
 311 1294 337 1284 337 1253 c 0
 337 1084 315 683 288 360 c 1
 244 369 l 1
 229 688 215 1141 215 1253 c 0
EndSplineSet
Colour: ffffff
EndChar

StartChar: exclamdown
Encoding: 161 161 200
Width: 481
VWidth: 0
Flags: MW
LayerCount: 2
Fore
SplineSet
172 -375 m 0
 172 -206 194 192 221 515 c 1
 227 517 l 1
 267 509 l 1
 267 507 l 1
 282 190 296 -264 296 -374 c 2
 296 -375 l 1
 287 -402 262 -416 226 -416 c 0
 199 -416 172 -406 172 -375 c 0
184 809 m 0
 184 867 198 910 243 910 c 0
 285 910 300 863 300 809 c 0
 300 755 277 717 243 717 c 0
 207 717 184 755 184 809 c 0
EndSplineSet
Colour: ffffff
EndChar

StartChar: f
Encoding: 102 102 201
Width: 607
VWidth: 0
Flags: MW
LayerCount: 2
Fore
SplineSet
105 0 m 1
 118 30 l 1
 268 59 l 1
 268 798 l 1
 120 798 l 1
 132 833 l 1
 271 855 l 1
 297 1172 447 1304 589 1304 c 0
 695 1304 758 1251 758 1194 c 0
 758 1155 743 1134 710 1121 c 1
 674 1180 619 1241 532 1241 c 0
 450 1241 371 1146 371 982 c 2
 371 848 l 1
 627 848 l 1
 616 798 l 1
 371 798 l 1
 371 61 l 1
 616 39 l 1
 609 0 l 1
 105 0 l 1
EndSplineSet
Colour: ffffff
EndChar

StartChar: five
Encoding: 53 53 202
Width: 1000
VWidth: 0
Flags: MW
LayerCount: 2
Fore
SplineSet
169 103 m 1
 200 351 l 1
 248 340 l 1
 263 154 l 1
 330 84 409 47 489 47 c 0
 649 47 744 159 744 325 c 0
 744 525 537 662 274 677 c 1
 385 1171 l 1
 813 1198 l 1
 797 1081 l 1
 414 1063 l 1
 363 779 l 1
 686 755 863 591 863 383 c 0
 863 172 691 -7 446 -7 c 0
 346 -7 253 27 169 103 c 1
EndSplineSet
Substitution2: "'sups' Superscript lookup 0 subtable" five.superior
Colour: ffffff
EndChar

StartChar: five.osf
Encoding: 65540 -1 203
Width: 1000
VWidth: 0
Flags: MW
LayerCount: 2
Fore
SplineSet
-43 -136 m 0
 -43 -89 0 -18 48 -15 c 1
 84 -157 153 -235 283 -235 c 0
 413 -235 571 -147 571 64 c 0
 571 264 394 382 120 401 c 1
 206 912 l 1
 652 948 l 1
 635 831 l 1
 261 804 l 1
 206 503 l 1
 490 479 688 347 688 120 c 0
 688 -123 506 -297 243 -297 c 0
 116 -297 -43 -249 -43 -136 c 0
EndSplineSet
Colour: ffffff
EndChar

StartChar: four
Encoding: 52 52 204
Width: 1000
VWidth: 0
Flags: MW
LayerCount: 2
Fore
SplineSet
98 398 m 1
 688 1187 l 1
 722 1175 l 1
 715 1057 713 865 713 683 c 2
 713 444 l 1
 969 444 l 1
 952 369 l 1
 713 369 l 1
 713 66 l 1
 915 47 l 1
 905 1 l 1
 342 1 l 1
 350 43 l 1
 607 73 l 1
 607 372 l 1
 112 372 l 1
 98 398 l 1
208 444 m 1
 604 444 l 1
 604 984 l 1
 208 444 l 1
EndSplineSet
Substitution2: "'sups' Superscript lookup 0 subtable" four.superior
Colour: ffffff
EndChar

StartChar: four.osf
Encoding: 65541 -1 205
Width: 948
VWidth: 0
Flags: MW
LayerCount: 2
Fore
SplineSet
106 154 m 1
 698 969 l 1
 732 958 l 1
 725 840 721 658 721 476 c 2
 721 200 l 1
 976 200 l 1
 961 125 l 1
 721 125 l 1
 721 -271 l 1
 616 -297 l 1
 616 127 l 1
 121 127 l 1
 106 154 l 1
222 200 m 1
 612 200 l 1
 612 751 l 1
 222 200 l 1
EndSplineSet
Colour: ffffff
EndChar

StartChar: fraction
Encoding: 8260 8260 206
Width: 1739
VWidth: 0
Flags: MW
LayerCount: 2
Fore
SplineSet
205 -43 m 1
 551 588 l 1
 867 1212 l 1
 964 1207 l 1
 964 1206 l 1
 630 591 l 1
 306 -47 l 1
 205 -43 l 1
EndSplineSet
Colour: ffffff
EndChar

StartChar: g
Encoding: 103 103 207
Width: 840
VWidth: 0
Flags: MW
LayerCount: 2
Fore
SplineSet
76 -169 m 0
 76 -56 184 3 256 39 c 1
 256 44 l 1
 210 64 160 103 160 160 c 0
 160 206 227 269 297 317 c 1
 245 343 159 429 159 565 c 0
 159 731 290 873 462 873 c 0
 522 873 582 845 633 809 c 1
 648 809 858 826 858 826 c 1
 868 813 l 1
 837 734 l 1
 829 732 l 1
 670 772 l 1
 665 768 l 1
 682 744 717 648 717 576 c 0
 717 416 569 281 426 281 c 0
 386 281 342 294 330 300 c 1
 294 266 250 234 250 195 c 0
 250 131 324 114 406 114 c 2
 576 113 l 2
 748 112 841 98 837 -64 c 0
 832 -236 642 -387 406 -387 c 0
 198 -387 76 -294 76 -169 c 0
172 -123 m 0
 172 -259 285 -319 484 -319 c 0
 611 -319 750 -248 750 -115 c 0
 750 -27 747 31 559 31 c 2
 307 31 l 1
 307 31 172 -13 172 -123 c 0
251 589 m 0
 251 471 328 337 453 337 c 0
 541 337 622 410 622 551 c 0
 622 705 544 827 438 827 c 0
 304 827 251 720 251 589 c 0
EndSplineSet
Colour: ffffff
EndChar

StartChar: germandbls
Encoding: 223 223 211
Width: 1144
VWidth: 0
Flags: MW
LayerCount: 2
Fore
SplineSet
105 0 m 1
 118 30 l 1
 268 59 l 1
 268 824 l 1
 120 824 l 1
 132 858 l 1
 271 880 l 1
 283 1118 385 1302 602 1302 c 0
 740 1302 873 1215 873 1055 c 3
 873 895 655 780 655 680 c 0
 655 469 1070 422 1070 205 c 0
 1070 56 937 -36 783 -36 c 0
 642 -36 517 47 517 174 c 0
 517 231 561 254 597 263 c 1
 623 87 677 15 813 15 c 0
 913 15 982 88 982 154 c 0
 982 326 576 383 576 625 c 0
 576 812 776 873 776 1027 c 3
 776 1145 661 1241 553 1241 c 0
 430 1241 371 1121 371 982 c 2
 371 0 l 1
 105 0 l 1
EndSplineSet
Colour: ffffff
EndChar

StartChar: grave
Encoding: 96 96 212
Width: 623
VWidth: 0
Flags: MW
LayerCount: 2
Fore
SplineSet
177 1661 m 1
 271 1698 l 1
 404 1362 l 1
 358 1335 l 1
 177 1661 l 1
EndSplineSet
Colour: ffffff
EndChar

StartChar: greater
Encoding: 62 62 213
Width: 680
VWidth: 0
Flags: MW
LayerCount: 2
Fore
SplineSet
75 -37 m 1
 595 444 l 1
 94 926 l 1
 110 973 l 1
 729 456 l 1
 731 426 l 1
 97 -82 l 1
 75 -37 l 1
EndSplineSet
Colour: ffffff
EndChar

StartChar: guilsinglleft
Encoding: 8249 8249 217
Width: 468
VWidth: 0
Flags: MW
LayerCount: 2
Fore
SplineSet
79 469 m 1
 347 822 l 1
 375 786 l 1
 187 462 l 1
 374 116 l 1
 342 78 l 1
 82 449 l 1
 79 469 l 1
EndSplineSet
Colour: ffffff
EndChar

StartChar: h
Encoding: 104 104 219
Width: 1062
VWidth: 0
Flags: MW
LayerCount: 2
Fore
SplineSet
100 0 m 1
 111 34 l 1
 265 59 l 1
 265 1190 l 1
 112 1221 l 1
 118 1252 l 1
 356 1272 l 1
 363 1262 l 1
 363 826 l 1
 353 721 l 1
 358 721 l 1
 433 801 554 880 672 880 c 0
 810 880 895 788 895 576 c 2
 895 57 l 1
 1035 37 l 1
 1029 0 l 1
 655 0 l 1
 661 33 l 1
 801 57 l 1
 804 549 l 1
 804 555 l 2
 804 734 730 802 628 802 c 0
 507 802 433 746 363 664 c 1
 363 59 l 1
 505 36 l 1
 498 0 l 1
 100 0 l 1
EndSplineSet
Colour: ffffff
EndChar

StartChar: hbar
Encoding: 295 295 220
Width: 1062
VWidth: 0
Flags: MW
LayerCount: 2
Fore
SplineSet
87 993 m 1
 97 1045 l 1
 680 1045 l 1
 672 993 l 1
 87 993 l 1
EndSplineSet
Refer: 219 104 N 1 0 0 1 0 0 2
Colour: ffffff
EndChar

StartChar: hungarumlaut
Encoding: 733 733 221
Width: 774
VWidth: 0
Flags: MW
LayerCount: 2
Fore
SplineSet
133 1392 m 1
 393 1601 l 1
 453 1531 l 1
 154 1359 l 1
 133 1392 l 1
342 1392 m 1
 599 1591 l 1
 655 1527 l 1
 363 1359 l 1
 342 1392 l 1
EndSplineSet
Colour: ffffff
EndChar

StartChar: hyphen
Encoding: 45 45 222
Width: 564
VWidth: 0
Flags: MW
LayerCount: 2
Fore
SplineSet
82 419 m 1
 92 480 l 1
 498 497 l 1
 489 437 l 1
 82 419 l 1
EndSplineSet
Colour: ffffff
EndChar

StartChar: i
Encoding: 105 105 223
Width: 570
VWidth: 0
Flags: MW
LayerCount: 2
Fore
SplineSet
123 0 m 1
 136 31 l 1
 286 59 l 1
 286 788 l 1
 133 816 l 1
 136 843 l 1
 372 863 l 1
 380 854 l 1
 380 59 l 1
 540 33 l 1
 529 0 l 1
 123 0 l 1
267 1193 m 0
 267 1256 286 1290 329 1290 c 0
 372 1290 393 1257 393 1193 c 0
 393 1127 376 1091 330 1091 c 0
 284 1091 267 1129 267 1193 c 0
EndSplineSet
Colour: ffffff
EndChar

StartChar: infinity
Encoding: 8734 8734 230
Width: 1389
VWidth: 0
Flags: MW
LayerCount: 2
Fore
SplineSet
66 508 m 0
 66 687 191 851 374 851 c 0
 503 851 597 796 700 634 c 1
 701 635 l 1
 767 731 865 846 1019 846 c 0
 1170 846 1294 738 1294 548 c 0
 1294 355 1165 227 1006 227 c 0
 889 227 789 298 701 425 c 1
 698 425 l 1
 606 273 487 221 374 221 c 0
 202 221 66 324 66 508 c 0
127 554 m 0
 127 418 231 312 413 312 c 0
 524 312 619 376 673 463 c 1
 507 724 438 763 323 763 c 0
 211 763 127 703 127 554 c 0
726 592 m 1
 875 376 940 299 1049 299 c 0
 1176 299 1251 405 1251 521 c 0
 1251 627 1125 767 984 767 c 0
 866 767 776 659 726 592 c 1
EndSplineSet
Colour: ffffff
EndChar

StartChar: integral
Encoding: 8747 8747 231
Width: 957
VWidth: 0
Flags: MW
LayerCount: 2
Fore
SplineSet
75 -271 m 0
 75 -231 89 -209 123 -196 c 1
 160 -256 218 -317 306 -317 c 0
 388 -317 453 -219 464 -55 c 1
 464 880 l 2
 464 1180 638 1304 780 1304 c 0
 886 1304 951 1251 951 1194 c 0
 951 1155 934 1134 901 1121 c 1
 865 1180 808 1241 721 1241 c 0
 636 1241 562 1136 562 982 c 2
 565 46 l 2
 566 -228 395 -383 246 -383 c 0
 137 -383 75 -328 75 -271 c 0
EndSplineSet
Colour: ffffff
EndChar

StartChar: j
Encoding: 106 106 233
Width: 456
VWidth: 0
Flags: MW
LayerCount: 2
Fore
SplineSet
42 -335 m 1
 150 -253 245 -122 245 149 c 2
 245 789 l 1
 93 816 l 1
 97 843 l 1
 333 863 l 1
 340 854 l 1
 340 151 l 2
 340 -100 251 -259 118 -353 c 2
 75 -384 l 1
 42 -335 l 1
224 1193 m 0
 224 1256 244 1290 287 1290 c 0
 330 1290 354 1257 354 1193 c 0
 354 1127 334 1091 288 1091 c 0
 242 1091 224 1129 224 1193 c 0
EndSplineSet
Colour: ffffff
EndChar

StartChar: k
Encoding: 107 107 234
Width: 982
VWidth: 0
Flags: MW
LayerCount: 2
Fore
SplineSet
108 0 m 1
 117 31 l 1
 271 59 l 1
 271 1194 l 1
 118 1223 l 1
 118 1251 l 1
 356 1271 l 1
 363 1262 l 1
 363 59 l 1
 522 33 l 1
 516 0 l 1
 108 0 l 1
399 425 m 1
 399 442 l 1
 711 785 l 1
 577 818 l 1
 582 852 l 1
 943 852 l 1
 936 818 l 1
 786 786 l 1
 493 459 l 1
 613 323 l 2
 789 123 825 61 952 46 c 2
 991 42 l 1
 984 0 l 1
 969 -6 925 -20 880 -20 c 0
 780 -20 736 19 562 228 c 2
 399 425 l 1
EndSplineSet
Colour: ffffff
EndChar

StartChar: l
Encoding: 108 108 236
Width: 570
VWidth: 0
Flags: MW
LayerCount: 2
Fore
SplineSet
108 0 m 1
 118 31 l 1
 271 59 l 1
 271 1194 l 1
 118 1223 l 1
 118 1251 l 1
 354 1271 l 1
 363 1262 l 1
 363 59 l 1
 525 33 l 1
 514 0 l 1
 108 0 l 1
EndSplineSet
Colour: ffffff
EndChar

StartChar: logicalnot
Encoding: 172 172 242
Width: 951
VWidth: 0
Flags: MW
LayerCount: 2
Fore
SplineSet
82 609 m 1
 94 664 l 1
 840 664 l 1
 840 351 l 5
 768 333 l 1
 768 609 l 1
 82 609 l 1
EndSplineSet
Colour: ffffff
EndChar

StartChar: lozenge
Encoding: 9674 9674 243
Width: 940
VWidth: 0
Flags: MW
LayerCount: 2
Fore
SplineSet
312 474 m 1
 472 717 l 1
 634 472 l 1
 474 224 l 1
 312 474 l 1
EndSplineSet
Colour: ffffff
EndChar

StartChar: lslash
Encoding: 322 322 244
Width: 577
VWidth: 0
Flags: MW
LayerCount: 2
Fore
SplineSet
108 0 m 1
 118 31 l 1
 271 59 l 1
 271 1194 l 1
 118 1223 l 1
 118 1251 l 1
 354 1271 l 1
 363 1262 l 1
 363 59 l 1
 525 33 l 1
 514 0 l 1
 108 0 l 1
118 475 m 1
 131 558 l 1
 507 840 l 1
 492 758 l 1
 118 475 l 1
EndSplineSet
Colour: ffffff
EndChar

StartChar: m
Encoding: 109 109 245
Width: 1597
VWidth: 0
Flags: MW
LayerCount: 2
Fore
SplineSet
120 0 m 1
 127 33 l 1
 281 57 l 1
 281 788 l 1
 127 816 l 1
 129 843 l 1
 363 863 l 1
 369 855 l 1
 365 716 l 1
 372 716 l 1
 436 795 559 880 686 880 c 0
 796 880 872 819 891 716 c 1
 901 716 l 1
 962 792 1080 880 1207 880 c 0
 1392 880 1443 758 1443 586 c 2
 1443 59 l 1
 1588 40 l 1
 1577 3 l 1
 1207 3 l 1
 1212 33 l 1
 1348 57 l 1
 1348 559 l 2
 1348 728 1281 800 1163 800 c 0
 1050 800 952 708 906 660 c 1
 906 57 l 1
 1037 37 l 1
 1029 0 l 1
 677 0 l 1
 683 33 l 1
 818 57 l 1
 818 559 l 2
 818 702 764 803 643 803 c 0
 535 803 431 735 374 659 c 1
 374 57 l 1
 516 37 l 1
 508 0 l 1
 120 0 l 1
EndSplineSet
Colour: ffffff
EndChar

StartChar: macron
Encoding: 175 175 246
Width: 697
VWidth: 0
Flags: MW
LayerCount: 2
Fore
SplineSet
124 1380 m 1
 133 1432 l 1
 573 1432 l 1
 565 1380 l 1
 124 1380 l 1
EndSplineSet
Colour: ffffff
EndChar

StartChar: minus
Encoding: 8722 8722 247
Width: 788
VWidth: 0
Flags: MW
LayerCount: 2
Fore
SplineSet
82 432 m 1
 99 496 l 1
 710 496 l 1
 693 432 l 1
 82 432 l 1
EndSplineSet
Colour: ffffff
EndChar

StartChar: mu
Encoding: 956 956 248
Width: 1025
VWidth: 0
Flags: MW
LayerCount: 2
Fore
SplineSet
87 816 m 1
 91 843 l 1
 321 863 l 1
 329 854 l 1
 329 317 l 2
 329 140 395 59 516 59 c 0
 607 59 697 126 744 183 c 1
 744 786 l 1
 589 816 l 1
 591 843 l 1
 828 863 l 1
 835 854 l 1
 835 230 l 2
 835 131 839 65 926 50 c 2
 988 37 l 1
 982 3 l 1
 962 -6 922 -18 880 -18 c 0
 798 -18 755 47 755 117 c 2
 755 133 l 1
 744 133 l 1
 675 31 562 -24 475 -24 c 0
 408 -24 338 0 308 60 c 1
 302 60 l 1
 305 42 303 -21 306 -85 c 2
 317 -389 l 1
 227 -363 l 1
 230 -336 242 160 242 495 c 2
 242 786 l 1
 87 816 l 1
EndSplineSet
Colour: ffffff
EndChar

StartChar: multiply
Encoding: 215 215 249
Width: 955
VWidth: 0
Flags: MW
LayerCount: 2
Fore
SplineSet
63 294 m 1
 247 462 l 1
 65 630 l 1
 123 678 l 1
 287 496 l 1
 459 680 l 1
 505 622 l 1
 325 459 l 1
 513 287 l 1
 455 242 l 1
 284 425 l 1
 109 236 l 1
 63 294 l 1
EndSplineSet
Colour: ffffff
EndChar

StartChar: n
Encoding: 110 110 250
Width: 1082
VWidth: 0
Flags: MW
LayerCount: 2
Fore
SplineSet
120 0 m 1
 127 31 l 1
 281 57 l 1
 281 788 l 1
 127 815 l 1
 129 843 l 1
 363 863 l 1
 369 854 l 1
 365 717 l 1
 372 717 l 1
 418 778 552 880 693 880 c 0
 811 880 914 802 914 584 c 2
 914 57 l 1
 1051 37 l 1
 1048 0 l 1
 671 0 l 1
 677 31 l 1
 819 57 l 1
 819 559 l 2
 819 736 738 801 653 801 c 0
 535 801 479 765 374 665 c 1
 374 57 l 1
 516 36 l 1
 510 0 l 1
 120 0 l 1
EndSplineSet
Colour: ffffff
EndChar

StartChar: nine
Encoding: 57 57 255
Width: 1000
VWidth: 0
Flags: MW
LayerCount: 2
Fore
SplineSet
172 833 m 0
 172 1039 326 1207 543 1207 c 0
 798 1207 886 989 886 756 c 0
 886 421 648 46 274 -27 c 1
 260 15 l 1
 583 112 714 377 754 577 c 1
 747 577 l 1
 687 531 611 478 475 478 c 0
 280 478 172 651 172 833 c 0
288 860 m 0
 288 686 388 555 548 555 c 0
 657 555 732 604 758 640 c 1
 767 683 768 743 768 779 c 0
 768 1024 642 1157 519 1157 c 0
 365 1157 288 1048 288 860 c 0
EndSplineSet
Substitution2: "'sups' Superscript lookup 0 subtable" nine.superior
Colour: ffffff
EndChar

StartChar: nine.osf
Encoding: 65542 -1 256
Width: 814
VWidth: 0
Flags: MW
LayerCount: 2
Fore
SplineSet
79 571 m 0
 79 777 220 945 426 945 c 0
 681 945 752 734 752 501 c 0
 752 166 501 -144 166 -261 c 1
 144 -217 l 1
 425 -81 562 106 622 306 c 1
 616 306 l 1
 556 260 492 215 356 215 c 0
 177 215 79 389 79 571 c 0
197 597 m 0
 197 423 279 292 430 292 c 0
 533 292 598 336 625 372 c 1
 632 408 632 480 632 516 c 0
 632 761 525 895 402 895 c 0
 264 895 197 785 197 597 c 0
EndSplineSet
Colour: ffffff
EndChar

StartChar: notequal
Encoding: 8800 8800 257
Width: 756
VWidth: 0
Flags: MW
LayerCount: 2
Fore
SplineSet
17 339 m 1
 29 404 l 1
 741 404 l 1
 730 339 l 1
 17 339 l 1
20 579 m 1
 32 644 l 1
 743 644 l 1
 733 579 l 1
 20 579 l 1
63 53 m 1
 272 372 l 1
 296 393 l 1
 455 613 l 1
 468 643 l 1
 624 869 l 1
 698 873 l 1
 542 643 l 1
 517 613 l 1
 351 383 l 1
 338 353 l 1
 136 59 l 1
 63 53 l 1
EndSplineSet
Colour: ffffff
EndChar

StartChar: numbersign
Encoding: 35 35 259
Width: 914
VWidth: 0
Flags: MW
LayerCount: 2
Back
SplineSet
263.058 102.03 m 17
 204.754 95.7832 l 9
 319.972 858.579 l 17
 378.275 866.908 l 9
 263.058 102.03 l 17
89.5371 591.357 m 17
 104.112 650.354 l 9
 793.335 650.354 l 17
 780.842 591.357 l 9
 89.5371 591.357 l 17
43.0332 324.137 m 17
 61.7734 383.133 l 9
 748.914 383.133 l 17
 730.868 324.137 l 9
 43.0332 324.137 l 17
524.726 102.03 m 17
 465.729 95.7832 l 9
 580.947 858.579 l 17
 639.943 866.213 l 9
 524.726 102.03 l 17
EndSplineSet
Fore
SplineSet
250 -19 m 17
 183 -26 l 9
 359 1151 l 17
 427 1161 l 9
 250 -19 l 17
33 712 m 17
 55 789 l 9
 966 789 l 17
 947 712 l 9
 33 712 l 17
-38 326 m 17
 -17 403 l 9
 892 403 l 17
 871 326 l 9
 -38 326 l 17
581 -19 m 17
 512 -26 l 9
 689 1151 l 17
 757 1160 l 9
 581 -19 l 17
EndSplineSet
Colour: ffffff
EndChar

StartChar: o
Encoding: 111 111 260
Width: 954
VWidth: 0
Flags: MW
LayerCount: 2
Fore
SplineSet
136 396 m 0
 136 698 313 879 537 879 c 0
 755 879 894 672 894 437 c 0
 894 157 716 -27 511 -27 c 0
 300 -27 136 134 136 396 c 0
241 468 m 0
 241 232 359 37 547 37 c 0
 693 37 789 193 789 401 c 0
 789 607 677 813 493 813 c 0
 342 813 241 662 241 468 c 0
EndSplineSet
Colour: ffffff
EndChar

StartChar: oe
Encoding: 339 339 265
Width: 1423
VWidth: 0
Flags: MW
LayerCount: 2
Fore
SplineSet
85 408 m 0
 85 712 279 879 467 879 c 0
 600 879 733 825 802 665 c 1
 853 774 966 874 1112 874 c 0
 1258 874 1345 810 1345 599 c 0
 1345 568 1336 480 1327 444 c 1
 843 438 l 1
 843 218 928 53 1136 53 c 0
 1231 53 1306 90 1353 137 c 1
 1371 104 l 1
 1314 29 1214 -29 1081 -29 c 0
 936 -29 829 58 783 190 c 1
 714 41 580 -27 444 -27 c 0
 254 -27 85 145 85 408 c 0
192 480 m 0
 192 244 308 37 496 37 c 0
 641 37 739 205 739 413 c 0
 739 618 628 813 444 813 c 0
 293 813 192 674 192 480 c 0
843 482 m 1
 1233 504 l 1
 1239 524 1241 616 1241 631 c 0
 1241 749 1160 809 1063 809 c 0
 959 809 843 691 843 482 c 1
EndSplineSet
Colour: ffffff
EndChar

StartChar: ogonek
Encoding: 731 731 266
Width: 516
VWidth: 0
Flags: MW
LayerCount: 2
Fore
SplineSet
157 -209 m 0
 157 -156 178 -97 286 3 c 1
 335 3 l 1
 271 -76 255 -121 255 -166 c 0
 255 -248 305 -300 396 -353 c 1
 363 -387 l 1
 219 -372 157 -294 157 -209 c 0
EndSplineSet
Colour: ffffff
EndChar

StartChar: one
Encoding: 49 49 270
Width: 1000
VWidth: 0
Flags: MW
LayerCount: 2
Fore
SplineSet
199 3 m 1
 200 48 l 1
 484 85 l 1
 484 1089 l 1
 216 1089 l 1
 221 1133 l 1
 571 1184 l 1
 599 1184 l 1
 599 82 l 1
 873 58 l 1
 864 3 l 1
 199 3 l 1
EndSplineSet
Substitution2: "'sups' Superscript lookup 0 subtable" one.superior
Colour: ffffff
EndChar

StartChar: one.osf
Encoding: 65543 -1 271
Width: 629
VWidth: 0
Flags: MW
LayerCount: 2
Fore
SplineSet
82 3 m 5
 85 48 l 5
 296 85 l 5
 296 837 l 5
 109 837 l 5
 115 881 l 5
 383 935 l 5
 408 935 l 5
 408 82 l 5
 610 58 l 5
 605 3 l 5
 82 3 l 5
EndSplineSet
Colour: ffffff
EndChar

StartChar: onehalf
Encoding: 189 189 272
Width: 1739
VWidth: 0
Flags: HMW
LayerCount: 2
Fore
SplineSet
705 47 m 1
 856 172 l 2
 1019 308 1084 382 1084 508 c 0
 1084 593 1037 668 946 668 c 0
 871 668 840 661 821 647 c 1
 795 497 l 1
 753 501 l 1
 758 660 l 1
 790 690 869 724 974 724 c 0
 1097 724 1195 662 1195 511 c 0
 1195 361 1072 267 842 88 c 2
 838 85 l 1
 1154 85 l 1
 1198 233 l 1
 1233 230 l 1
 1213 0 l 1
 708 0 l 1
 705 47 l 1
22 570 m 1
 23 615 l 1
 188 636 l 1
 188 1204 l 1
 32 1204 l 1
 35 1248 l 1
 271 1276 l 1
 289 1276 l 1
 289 634 l 1
 448 625 l 1
 443 570 l 1
 22 570 l 1
205 -43 m 1
 551 588 l 1
 867 1212 l 1
 964 1207 l 1
 961 1203 l 1
 630 591 l 1
 306 -47 l 1
 205 -43 l 1
EndSplineSet
Colour: ffffff
EndChar

StartChar: onequarter
Encoding: 188 188 273
Width: 1739
VWidth: 0
Flags: HMW
LayerCount: 2
Fore
SplineSet
590 231 m 5
 973 723 l 5
 1017 716 l 5
 1011 645 1009 529 1009 420 c 6
 1009 277 l 5
 1157 277 l 5
 1148 202 l 5
 1009 202 l 5
 1009 64 l 5
 1126 45 l 5
 1120 -1 l 5
 746 -1 l 5
 752 41 l 5
 916 68 l 5
 916 205 l 5
 599 205 l 5
 590 231 l 5
696 277 m 5
 914 277 l 5
 914 557 l 5
 696 277 l 5
22 570 m 5
 23 615 l 5
 188 636 l 5
 188 1204 l 5
 32 1204 l 5
 35 1248 l 5
 271 1276 l 5
 289 1276 l 5
 289 634 l 5
 448 625 l 5
 443 570 l 5
 22 570 l 5
205 -43 m 5
 551 588 l 5
 867 1212 l 5
 964 1207 l 5
 961 1203 l 5
 630 591 l 5
 306 -47 l 5
 205 -43 l 5
EndSplineSet
Colour: ffffff
EndChar

StartChar: one.superior
Encoding: 185 185 274
Width: 615
VWidth: 0
Flags: HMW
LayerCount: 2
Fore
SplineSet
115 566 m 1
 116 611 l 1
 281 632 l 1
 281 1200 l 1
 125 1200 l 1
 128 1244 l 1
 364 1272 l 1
 382 1272 l 1
 382 630 l 1
 541 621 l 1
 536 566 l 1
 115 566 l 1
EndSplineSet
Colour: ffffff
EndChar

StartChar: ordfeminine
Encoding: 170 170 275
Width: 864
VWidth: 0
Flags: MW
LayerCount: 2
Fore
SplineSet
161 711 m 0
 161 841 276 952 531 967 c 1
 531 994 l 2
 531 1161 501 1235 378 1235 c 0
 289 1235 281 1165 269 1068 c 1
 235 1068 188 1086 188 1122 c 1
 188 1210 309 1282 421 1282 c 0
 545 1282 619 1205 619 1036 c 2
 619 764 l 2
 619 690 603 640 673 628 c 2
 726 617 l 1
 722 583 l 1
 706 576 675 566 641 566 c 0
 575 566 541 616 541 674 c 2
 541 685 l 1
 537 685 l 1
 519 636 438 560 327 560 c 0
 242 560 161 613 161 711 c 0
257 734 m 0
 257 668 283 622 353 622 c 0
 430 622 494 672 531 735 c 1
 531 927 l 1
 371 904 257 861 257 734 c 0
EndSplineSet
Colour: ffffff
EndChar

StartChar: ordmasculine
Encoding: 186 186 276
Width: 954
VWidth: 0
Flags: MW
LayerCount: 2
Fore
SplineSet
138 896 m 0
 138 1138 288 1283 467 1283 c 0
 641 1283 760 1117 760 929 c 0
 760 705 610 558 446 558 c 0
 277 558 138 686 138 896 c 0
236 954 m 0
 236 753 325 616 475 616 c 0
 592 616 662 734 662 900 c 0
 662 1074 579 1223 432 1223 c 0
 311 1223 236 1109 236 954 c 0
EndSplineSet
Colour: ffffff
EndChar

StartChar: oslash
Encoding: 248 248 277
Width: 954
VWidth: 0
Flags: MW
LayerCount: 2
Fore
SplineSet
87 46 m 1
 218 183 l 1
 260 209 l 1
 721 721 l 1
 752 765 l 1
 818 847 l 1
 932 857 l 1
 798 713 l 1
 751 680 l 1
 290 172 l 1
 259 121 l 1
 199 54 l 1
 87 46 l 1
241 480 m 0
 241 244 359 37 547 37 c 0
 692 37 789 205 789 413 c 0
 789 619 677 840 493 840 c 0
 342 840 241 674 241 480 c 0
136 408 m 0
 136 715 313 903 537 903 c 0
 755 903 894 684 894 449 c 0
 894 169 716 -27 511 -27 c 0
 293 -27 136 145 136 408 c 0
EndSplineSet
Colour: ffffff
EndChar

StartChar: p
Encoding: 112 112 280
Width: 988
VWidth: 0
Flags: MW
LayerCount: 2
Fore
SplineSet
92 -374 m 1
 97 -335 l 1
 247 -313 l 1
 247 786 l 1
 94 815 l 1
 98 843 l 1
 335 864 l 1
 342 855 l 1
 337 710 l 1
 345 710 l 1
 396 780 497 874 628 874 c 0
 800 874 925 749 925 456 c 0
 925 172 744 -20 496 -20 c 0
 467 -20 418 -16 385 -9 c 1
 380 63 l 1
 426 45 470 40 549 40 c 0
 687 40 824 159 824 402 c 0
 824 632 750 793 568 793 c 0
 468 793 402 718 345 659 c 1
 345 -315 l 1
 500 -333 l 1
 493 -374 l 1
 92 -374 l 1
EndSplineSet
Colour: ffffff
EndChar

StartChar: paragraph
Encoding: 182 182 281
Width: 1291
VWidth: 0
Flags: MW
LayerCount: 2
Fore
SplineSet
245 843 m 0
 245 1081 473 1245 721 1245 c 2
 903 1245 l 1
 903 1 l 1
 581 1 l 1
 587 43 l 1
 803 73 l 1
 803 1185 l 1
 761 1188 739 1187 730 1187 c 0
 475 1187 377 1076 377 840 c 0
 377 668 507 528 722 528 c 1
 704 478 l 1
 443 478 245 551 245 843 c 0
959 1 m 1
 959 1245 l 1
 1243 1245 l 1
 1239 1207 l 1
 1062 1184 l 1
 1062 64 l 1
 1254 46 l 1
 1244 -2 l 1
 959 1 l 1
EndSplineSet
Colour: ffffff
EndChar

StartChar: paragraph.osf
Encoding: 65544 -1 282
Width: 1380
VWidth: 0
Flags: MW
LayerCount: 2
Fore
SplineSet
341 630 m 0
 341 820 539 952 739 952 c 2
 900 952 l 1
 900 1 l 1
 580 1 l 1
 586 43 l 1
 802 73 l 1
 804 895 l 1
 771 898 754 897 745 897 c 0
 539 897 463 817 463 627 c 0
 463 491 568 393 740 393 c 1
 725 339 l 1
 516 339 341 397 341 630 c 0
960 -3 m 1
 960 954 l 1
 1243 954 l 1
 1239 915 l 1
 1062 894 l 1
 1062 64 l 1
 1254 46 l 1
 1244 -3 l 1
 960 -3 l 1
EndSplineSet
Colour: ffffff
EndChar

StartChar: parenright
Encoding: 41 41 284
Width: 471
VWidth: 0
Flags: MW
LayerCount: 2
Fore
SplineSet
64 1213 m 1
 88 1256 l 1
 154 1199 426 981 426 455 c 0
 426 -61 145 -328 94 -374 c 1
 66 -342 l 1
 111 -269 313 40 313 456 c 0
 313 881 149 1100 64 1213 c 1
EndSplineSet
Colour: ffffff
EndChar

StartChar: partialdiff
Encoding: 8706 8706 285
Width: 949
VWidth: 0
Flags: MW
LayerCount: 2
Fore
SplineSet
160 451 m 0
 160 747 280 949 492 949 c 0
 610 949 703 858 732 782 c 1
 739 783 l 1
 667 1069 444 1263 401 1302 c 1
 467 1302 l 1
 734 1126 873 852 873 465 c 0
 873 157 732 -27 517 -27 c 0
 274 -27 160 208 160 451 c 0
261 498 m 0
 261 185 390 29 541 29 c 0
 695 29 772 210 772 425 c 0
 772 742 616 893 480 893 c 2
 476 893 l 1
 322 890 261 693 261 498 c 0
EndSplineSet
Colour: ffffff
EndChar

StartChar: percent
Encoding: 37 37 286
Width: 1739
VWidth: 0
Flags: MW
LayerCount: 2
Fore
SplineSet
82 899 m 0
 82 1069 171 1213 294 1213 c 0
 312 1213 331 1213 337 1210 c 1
 329 1163 l 17
 315 1177 313 1182 294 1182 c 0
 209 1182 172 1014 172 899 c 0
 172 781 221 625 296 625 c 0
 380 625 426 779 426 899 c 0
 426 1042 398 1137 371 1194 c 9
 867 1212 l 25
 877 1163 l 25
 467 1163 l 17
 496 1120 517 949 517 899 c 0
 517 727 414 586 296 586 c 0
 169 586 82 707 82 899 c 0
205 -43 m 1
 551 588 l 1
 867 1212 l 1
 964 1207 l 1
 961 1203 l 1
 630 591 l 1
 306 -47 l 1
 205 -43 l 1
656 278 m 0
 656 448 746 591 869 591 c 0
 1011 591 1094 453 1094 274 c 0
 1094 104 990 -36 872 -36 c 0
 745 -36 656 88 656 278 c 0
749 278 m 0
 749 160 797 0 872 0 c 0
 956 0 1002 159 1002 280 c 0
 1002 400 945 559 869 559 c 0
 784 559 749 393 749 278 c 0
EndSplineSet
Colour: ffffff
EndChar

StartChar: percent.osf
Encoding: 65545 -1 287
Width: 1197
VWidth: 0
Flags: MW
LayerCount: 2
Fore
SplineSet
82 700 m 0
 82 833 171 949 294 949 c 0
 309 949 328 949 337 946 c 1
 329 897 l 17
 315 906 313 910 294 910 c 0
 209 910 172 786 172 698 c 0
 172 606 221 496 296 496 c 0
 380 496 426 606 426 700 c 0
 426 800 388 897 371 933 c 9
 867 948 l 25
 877 897 l 25
 467 897 l 17
 496 864 517 738 517 698 c 0
 517 562 414 451 296 451 c 0
 169 451 82 549 82 700 c 0
205 -33 m 1
 551 459 l 1
 867 948 l 1
 972 943 l 1
 972 941 l 1
 630 463 l 1
 315 -37 l 1
 205 -33 l 1
656 212 m 0
 656 345 746 463 869 463 c 0
 1011 463 1094 352 1094 211 c 0
 1094 78 990 -36 872 -36 c 0
 745 -36 656 63 656 212 c 0
749 212 m 0
 749 120 797 7 872 7 c 0
 956 7 1002 118 1002 215 c 0
 1002 309 945 425 869 425 c 0
 784 425 749 300 749 212 c 0
EndSplineSet
Colour: ffffff
EndChar

StartChar: period
Encoding: 46 46 288
Width: 398
VWidth: 0
Flags: MW
LayerCount: 2
Fore
SplineSet
145 70 m 0
 145 133 165 167 208 167 c 0
 251 167 271 134 271 70 c 0
 271 4 254 -33 208 -33 c 0
 162 -33 145 6 145 70 c 0
EndSplineSet
Colour: ffffff
EndChar

StartChar: periodcentered
Encoding: 183 183 289
Width: 398
VWidth: 0
Flags: MW
LayerCount: 2
Fore
SplineSet
139 502 m 0
 139 565 159 599 202 599 c 0
 245 599 265 566 265 502 c 0
 265 436 249 401 203 401 c 0
 157 401 139 438 139 502 c 0
EndSplineSet
Colour: ffffff
EndChar

StartChar: perthousand
Encoding: 8240 8240 290
Width: 1739
VWidth: 0
Flags: MW
LayerCount: 2
Fore
SplineSet
82 899 m 0
 82 1069 171 1213 294 1213 c 0
 312 1213 331 1213 337 1210 c 1
 329 1163 l 17
 315 1177 313 1182 294 1182 c 0
 209 1182 172 1014 172 899 c 0
 172 781 221 625 296 625 c 0
 380 625 426 779 426 899 c 0
 426 1042 398 1137 371 1194 c 9
 867 1212 l 25
 877 1163 l 25
 467 1163 l 17
 496 1120 517 949 517 899 c 0
 517 727 414 586 296 586 c 0
 169 586 82 707 82 899 c 0
205 -43 m 1
 551 588 l 1
 867 1212 l 1
 964 1207 l 1
 964 1206 l 1
 630 591 l 1
 306 -47 l 1
 205 -43 l 1
656 278 m 0
 656 448 746 591 869 591 c 0
 1011 591 1094 453 1094 274 c 0
 1094 104 990 -36 872 -36 c 0
 745 -36 656 88 656 278 c 0
749 278 m 0
 749 160 797 0 872 0 c 0
 956 0 1002 159 1002 280 c 0
 1002 400 945 559 869 559 c 0
 784 559 749 393 749 278 c 0
1195 278 m 0
 1195 448 1286 591 1409 591 c 0
 1551 591 1634 453 1634 274 c 0
 1634 104 1529 -36 1411 -36 c 0
 1284 -36 1195 88 1195 278 c 0
1290 278 m 0
 1290 160 1336 0 1411 0 c 0
 1495 0 1543 159 1543 280 c 0
 1543 400 1485 559 1409 559 c 0
 1324 559 1290 393 1290 278 c 0
EndSplineSet
Colour: ffffff
EndChar

StartChar: perthousand.osf
Encoding: 65546 -1 291
Width: 1679
VWidth: 0
Flags: MW
LayerCount: 2
Fore
SplineSet
82 700 m 0
 82 833 171 949 294 949 c 0
 309 949 328 949 337 946 c 1
 329 897 l 17
 315 906 313 910 294 910 c 0
 209 910 172 786 172 698 c 0
 172 606 221 496 296 496 c 0
 380 496 426 606 426 700 c 0
 426 800 388 897 371 933 c 9
 867 948 l 25
 877 897 l 25
 467 897 l 17
 496 864 517 738 517 698 c 0
 517 562 414 451 296 451 c 0
 169 451 82 549 82 700 c 0
205 -33 m 1
 551 459 l 1
 867 948 l 1
 972 943 l 1
 972 940 l 1
 630 463 l 1
 315 -37 l 1
 205 -33 l 1
656 212 m 0
 656 345 746 463 869 463 c 0
 1011 463 1094 352 1094 211 c 0
 1094 78 990 -36 872 -36 c 0
 745 -36 656 63 656 212 c 0
749 212 m 0
 749 120 797 7 872 7 c 0
 956 7 1002 118 1002 215 c 0
 1002 309 945 425 869 425 c 0
 784 425 749 300 749 212 c 0
1194 211 m 0
 1194 344 1286 460 1409 460 c 0
 1551 460 1632 352 1632 211 c 0
 1632 78 1528 -34 1410 -34 c 0
 1283 -34 1194 62 1194 211 c 0
1289 211 m 0
 1289 119 1335 9 1410 9 c 0
 1494 9 1541 117 1541 214 c 0
 1541 308 1485 423 1409 423 c 0
 1324 423 1289 299 1289 211 c 0
EndSplineSet
Colour: ffffff
EndChar

StartChar: plus
Encoding: 43 43 292
Width: 710
VWidth: 0
Flags: MW
LayerCount: 2
Fore
SplineSet
123 426 m 1
 136 495 l 1
 344 495 l 1
 344 742 l 1
 411 730 l 1
 413 495 l 1
 633 495 l 1
 622 426 l 1
 413 426 l 1
 414 172 l 1
 344 187 l 1
 344 426 l 1
 123 426 l 1
EndSplineSet
Colour: ffffff
EndChar

StartChar: product
Encoding: 8719 8719 294
Width: 1413
VWidth: 0
Flags: MW
LayerCount: 2
Fore
SplineSet
117 1205 m 1
 120 1244 l 1
 1398 1244 l 1
 1390 1205 l 1
 1223 1182 l 1
 1223 65 l 1
 1406 46 l 1
 1399 0 l 1
 946 0 l 1
 954 42 l 1
 1120 72 l 1
 1120 1181 l 1
 402 1181 l 1
 402 65 l 1
 588 46 l 1
 577 0 l 1
 125 0 l 1
 130 42 l 1
 297 72 l 1
 297 1180 l 1
 117 1205 l 1
EndSplineSet
Colour: ffffff
EndChar

StartChar: q
Encoding: 113 113 295
Width: 971
VWidth: 0
Flags: MW
LayerCount: 2
Fore
SplineSet
121 401 m 0
 121 673 323 877 532 877 c 0
 626 877 692 852 721 837 c 1
 790 864 l 1
 809 864 l 1
 809 -308 l 1
 970 -326 l 1
 963 -368 l 1
 553 -368 l 1
 558 -329 l 1
 709 -308 l 1
 709 719 l 1
 672 766 594 818 482 818 c 0
 345 818 226 667 226 462 c 0
 226 169 323 52 483 52 c 0
 543 52 627 70 677 106 c 1
 680 70 l 1
 617 10 522 -22 430 -22 c 0
 255 -22 121 100 121 401 c 0
EndSplineSet
Colour: ffffff
EndChar

StartChar: question
Encoding: 63 63 296
Width: 596
VWidth: 0
Flags: MW
LayerCount: 2
Fore
SplineSet
33 1166 m 0
 33 1230 142 1286 232 1286 c 0
 410 1286 548 1104 548 925 c 0
 548 698 238 683 238 508 c 0
 238 468 258 406 284 358 c 1
 245 342 l 1
 200 385 159 462 159 544 c 0
 159 761 470 796 470 946 c 0
 470 1063 401 1182 268 1182 c 0
 192 1182 121 1151 78 1105 c 1
 51 1119 33 1140 33 1166 c 0
224 66 m 0
 224 120 247 159 281 159 c 0
 317 159 340 120 340 66 c 0
 340 8 326 -33 281 -33 c 0
 239 -33 224 12 224 66 c 0
EndSplineSet
Colour: ffffff
EndChar

StartChar: quotedbl
Encoding: 34 34 298
Width: 377
VWidth: 0
Flags: MW
LayerCount: 2
Fore
SplineSet
154 1302 m 1
 263 1296 l 1
 227 895 l 1
 175 891 l 1
 154 1302 l 1
319 1302 m 1
 429 1296 l 1
 393 895 l 1
 340 891 l 1
 319 1302 l 1
EndSplineSet
Colour: ffffff
EndChar

StartChar: quotereversed
Encoding: 8219 8219 303
Width: 360
VWidth: 0
Flags: MW
LayerCount: 2
Fore
SplineSet
54 1078 m 0
 54 1216 123 1284 199 1284 c 0
 258 1284 309 1238 290 1174 c 5
 215 1203 154 1124 154 1038 c 0
 154 956 189 887 332 830 c 1
 317 788 l 1
 108 854 54 984 54 1078 c 0
EndSplineSet
Colour: ffffff
EndChar

StartChar: quotesingle
Encoding: 39 39 306
Width: 377
VWidth: 0
Flags: MW
LayerCount: 2
Fore
SplineSet
172 1302 m 1
 281 1296 l 1
 245 895 l 1
 193 891 l 1
 172 1302 l 1
EndSplineSet
Colour: ffffff
EndChar

StartChar: r
Encoding: 114 114 307
Width: 741
VWidth: 0
Flags: MW
LayerCount: 2
Back
SplineSet
96.4775 -0.694336 m 5
 100.642 25.6807 l 5
 234.6 48.5859 l 5
 234.6 672.565 l 5
 100.642 697.553 l 5
 103.417 721.15 l 5xb0
 302.619 738.503 l 5
 310.254 730.868 l 5
 303.313 508.762 l 5
 310.254 508.762 l 5
 333.854 653.132 417.837 755.16 526.809 755.16 c 4
 574.006 755.16 622.591 727.397 622.591 678.812 c 4
 622.591 650.354 610.098 633.003 582.335 614.263 c 5xd0
 557.348 660.766 521.949 682.282 485.857 682.282 c 4xd0
 374.805 682.282 331.076 496.269 315.113 361.617 c 5
 315.113 47.1982 l 5
 510.844 30.54 l 5
 504.599 -0.694336 l 5
 96.4775 -0.694336 l 5
318.583 0 m 4
EndSplineSet
Fore
SplineSet
113 -1 m 1
 118 30 l 1
 274 57 l 1
 274 786 l 1
 118 815 l 1
 121 843 l 1
 353 863 l 1
 363 854 l 1
 354 594 l 1
 363 594 l 1
 407 759 497 882 607 882 c 0
 673 882 710 849 710 805 c 0
 710 783 691 752 664 734 c 1
 630 774 602 789 559 789 c 0
 448 789 393 596 369 423 c 1
 369 55 l 1
 597 36 l 1
 589 -1 l 1
 113 -1 l 1
EndSplineSet
Colour: ffffff
EndChar

StartChar: radical
Encoding: 8730 8730 309
Width: 1045
VWidth: 0
Flags: MW
LayerCount: 2
Fore
SplineSet
33 475 m 1
 43 516 l 1
 287 534 l 1
 489 21 l 1
 972 1296 l 1
 1050 1302 l 1
 501 -118 l 1
 442 -133 l 1
 205 455 l 1
 33 475 l 1
EndSplineSet
Colour: ffffff
EndChar

StartChar: registered
Encoding: 174 174 312
Width: 1445
VWidth: 0
Flags: MW
LayerCount: 2
Fore
SplineSet
422 771 m 1
 425 802 l 1
 496 815 l 1
 496 1284 l 1
 424 1293 l 1
 428 1316 l 1
 495 1327 572 1335 639 1335 c 0
 737 1335 832 1291 832 1203 c 0
 832 1142 789 1086 695 1040 c 1
 695 1039 l 1
 784 916 l 2
 850 824 869 815 899 804 c 2
 921 796 l 1
 918 770 l 1
 899 763 893 763 876 763 c 0
 824 763 781 788 730 880 c 2
 651 1020 l 1
 562 1020 l 1
 562 812 l 1
 657 804 l 1
 652 771 l 1
 422 771 l 1
562 1055 m 1
 664 1055 l 1
 716 1088 762 1130 762 1191 c 0
 762 1272 710 1299 616 1299 c 0
 592 1299 562 1297 562 1297 c 1
 562 1055 l 1
181 1022 m 0
 181 1332 392 1518 652 1518 c 0
 928 1518 1141 1336 1141 1026 c 0
 1141 728 908 544 642 544 c 0
 388 544 181 736 181 1022 c 0
236 1036 m 0
 236 776 400 592 650 592 c 0
 884 592 1084 752 1084 1016 c 0
 1084 1300 900 1467 652 1472 c 0
 430 1476 236 1336 236 1036 c 0
EndSplineSet
Colour: ffffff
EndChar

StartChar: ring
Encoding: 730 730 313
Width: 544
VWidth: 0
Flags: MW
LayerCount: 2
Fore
SplineSet
118 1529 m 0
 118 1621 192 1700 286 1700 c 0
 383 1700 444 1632 444 1538 c 0
 444 1447 376 1363 274 1363 c 0
 182 1363 118 1427 118 1529 c 0
183 1540 m 0
 183 1476 215 1404 284 1404 c 0
 343 1404 378 1447 378 1523 c 0
 378 1589 340 1660 274 1660 c 0
 210 1660 183 1600 183 1540 c 0
EndSplineSet
Colour: ffffff
EndChar

StartChar: s
Encoding: 115 115 314
Width: 686
VWidth: 0
Flags: MW
LayerCount: 2
Fore
SplineSet
92 167 m 0
 92 224 136 247 172 256 c 1
 198 80 253 15 389 15 c 0
 489 15 555 88 555 154 c 0
 555 349 142 399 142 649 c 0
 142 767 218 877 396 877 c 0
 526 877 613 784 613 692 c 0
 613 622 575 608 543 605 c 1
 534 640 l 2
 492 799 432 833 372 833 c 0
 276 833 220 788 220 704 c 0
 220 490 645 435 645 205 c 0
 645 56 510 -36 356 -36 c 0
 215 -36 92 40 92 167 c 0
EndSplineSet
Colour: ffffff
EndChar

StartChar: section
Encoding: 167 167 319
Width: 860
VWidth: 0
Flags: MW
LayerCount: 2
Fore
SplineSet
96 -239 m 1
 125 46 l 1
 172 42 l 1
 200 -179 l 1
 245 -266 364 -317 477 -317 c 0
 601 -317 717 -241 717 -92 c 0
 717 189 181 257 152 547 c 1
 490 333 l 2
 652 233 826 132 826 -46 c 0
 826 -235 673 -378 425 -378 c 0
 281 -378 160 -318 96 -239 c 1
143 959 m 0
 143 1158 315 1271 475 1271 c 0
 583 1271 700 1236 767 1161 c 1
 734 851 l 1
 688 858 l 1
 661 1101 l 1
 625 1167 531 1214 449 1214 c 0
 337 1214 241 1137 241 1006 c 0
 241 697 798 636 825 335 c 1
 476 564 l 2
 319 666 143 766 143 959 c 0
EndSplineSet
Colour: ffffff
EndChar

StartChar: seven
Encoding: 55 55 321
Width: 1000
VWidth: 0
Flags: MW
LayerCount: 2
Fore
SplineSet
162 848 m 1
 192 1182 l 1
 931 1182 l 1
 931 1130 l 1
 501 -33 l 1
 390 -20 l 1
 849 1078 l 1
 262 1078 l 1
 200 843 l 1
 162 848 l 1
EndSplineSet
Substitution2: "'sups' Superscript lookup 0 subtable" seven.superior
Colour: ffffff
EndChar

StartChar: seven.osf
Encoding: 65547 -1 322
Width: 741
VWidth: 0
Flags: MW
LayerCount: 2
Fore
SplineSet
42 597 m 1
 65 921 l 1
 714 921 l 1
 714 867 l 1
 494 474 334 176 319 -302 c 1
 313 -302 311 -304 305 -304 c 0
 221 -304 188 -257 188 -181 c 0
 188 88 478 580 622 825 c 1
 139 825 l 1
 76 589 l 1
 42 597 l 1
EndSplineSet
Colour: ffffff
EndChar

StartChar: six
Encoding: 54 54 323
Width: 1000
VWidth: 0
Flags: MW
LayerCount: 2
Fore
SplineSet
182 422 m 0
 182 757 393 1095 722 1213 c 1
 743 1171 l 1
 442 1040 353 809 313 609 c 1
 320 609 l 1
 380 655 459 709 595 709 c 0
 790 709 899 535 899 353 c 0
 899 147 743 -22 526 -22 c 0
 271 -22 182 189 182 422 c 0
302 408 m 0
 302 163 427 27 550 27 c 0
 704 27 779 139 779 327 c 0
 779 501 681 631 521 631 c 0
 412 631 338 589 312 553 c 1
 305 517 302 444 302 408 c 0
EndSplineSet
Substitution2: "'sups' Superscript lookup 0 subtable" six.superior
Colour: ffffff
EndChar

StartChar: six.osf
Encoding: 65548 -1 324
Width: 816
VWidth: 0
Flags: MW
LayerCount: 2
Fore
SplineSet
124 422 m 0
 124 721 332 1089 674 1206 c 1
 695 1162 l 1
 421 1051 303 809 263 609 c 1
 271 609 l 1
 331 655 422 700 514 700 c 0
 696 700 791 535 791 353 c 0
 791 157 639 -22 451 -22 c 0
 196 -22 124 189 124 422 c 0
245 408 m 0
 245 163 353 36 476 36 c 0
 617 36 673 179 673 327 c 0
 673 501 599 623 439 623 c 0
 364 623 296 587 259 553 c 1
 252 517 245 444 245 408 c 0
EndSplineSet
Colour: ffffff
EndChar

StartChar: slash
Encoding: 47 47 325
Width: 543
VWidth: 0
Flags: MW
LayerCount: 2
Fore
SplineSet
27 -358 m 1
 489 1241 l 1
 571 1244 l 1
 106 -354 l 1
 27 -358 l 1
EndSplineSet
Colour: ffffff
EndChar

StartChar: softhyphen
Encoding: 173 173 326
Width: 564
VWidth: 0
Flags: MW
LayerCount: 2
Fore
SplineSet
79 435 m 1
 87 497 l 1
 496 558 l 1
 486 495 l 1
 79 435 l 1
EndSplineSet
Colour: ffffff
EndChar

StartChar: sterling
Encoding: 163 163 328
Width: 1071
VWidth: 0
Flags: MW
LayerCount: 2
Fore
SplineSet
121 0 m 1
 127 42 l 1
 297 72 l 1
 324 176 332 313 335 462 c 1
 335 573 l 1
 159 565 l 1
 170 623 l 1
 339 633 l 1
 342 786 l 2
 349 1105 443 1251 670 1251 c 0
 752 1251 822 1244 901 1211 c 1
 870 889 l 1
 822 897 l 1
 801 1161 l 1
 779 1172 685 1198 649 1198 c 0
 495 1198 453 1142 453 701 c 2
 453 640 l 1
 672 653 l 1
 661 593 l 1
 451 580 l 1
 451 516 l 2
 451 308 425 154 389 58 c 1
 926 58 l 1
 1017 323 l 1
 1058 313 l 1
 1027 0 l 1
 121 0 l 1
EndSplineSet
Colour: ffffff
EndChar

StartChar: sterling.osf
Encoding: 65549 -1 329
Width: 1285
VWidth: 0
Flags: MW
LayerCount: 2
Fore
SplineSet
163 0 m 1
 169 42 l 1
 337 72 l 1
 367 136 377 211 377 296 c 2
 377 408 l 1
 200 399 l 1
 211 459 l 1
 381 468 l 1
 384 589 l 1
 387 761 456 965 683 965 c 0
 765 965 899 917 899 835 c 0
 899 785 868 757 813 739 c 1
 791 844 747 912 665 912 c 0
 511 912 495 793 495 538 c 2
 495 476 l 1
 752 490 l 1
 742 431 l 1
 492 414 l 1
 492 351 l 2
 492 217 474 116 429 58 c 1
 877 58 l 1
 967 299 l 1
 1008 288 l 1
 978 0 l 1
 163 0 l 1
EndSplineSet
Colour: ffffff
EndChar

StartChar: summation
Encoding: 8721 8721 330
Width: 1071
VWidth: 0
Flags: MW
LayerCount: 2
Fore
SplineSet
36 1202 m 1
 46 1244 l 1
 1031 1244 l 1
 1000 925 l 1
 954 931 l 1
 935 1193 l 1
 160 1193 l 1
 677 672 l 1
 670 640 l 1
 144 54 l 1
 963 54 l 1
 1037 323 l 1
 1078 313 l 1
 1048 0 l 1
 40 0 l 1
 40 42 l 1
 576 631 l 1
 576 640 l 1
 36 1202 l 1
EndSplineSet
Colour: ffffff
EndChar

StartChar: t
Encoding: 116 116 331
Width: 631
VWidth: 0
Flags: MW
LayerCount: 2
Fore
SplineSet
104 758 m 1
 104 787 l 1
 214 826 248 842 284 1048 c 1
 327 1048 l 1
 327 810 l 1
 609 810 l 1
 602 756 l 1
 325 756 l 1
 323 301 l 2
 323 116 366 73 453 73 c 0
 528 73 618 148 618 148 c 1
 634 115 l 1
 575 33 483 -24 396 -24 c 0
 273 -24 227 71 227 243 c 2
 230 758 l 1
 104 758 l 1
EndSplineSet
Colour: ffffff
EndChar

StartChar: tcaron
Encoding: 357 357 333
Width: 979
VWidth: 0
Flags: MW
LayerCount: 2
Fore
SplineSet
104 758 m 1
 104 785 l 1
 222 811 254 889 284 1048 c 1
 327 1048 l 1
 327 810 l 1
 609 810 l 1
 602 756 l 1
 325 756 l 1
 323 309 l 1
 323 301 l 2
 323 116 366 73 453 73 c 0
 528 73 618 148 618 148 c 1
 634 115 l 1
 575 33 483 -24 396 -24 c 0
 273 -24 227 71 227 243 c 2
 227 274 l 1
 230 758 l 1
 104 758 l 1
641 780 m 1
 784 837 818 906 818 988 c 0
 818 1075 768 1130 709 1130 c 0
 700 1130 689 1131 680 1127 c 1
 677 1136 680 1138 680 1145 c 0
 680 1200 715 1235 772 1235 c 0
 848 1235 917 1165 917 1027 c 0
 917 933 862 802 653 736 c 1
 641 780 l 1
EndSplineSet
Colour: ffffff
EndChar

StartChar: thorn
Encoding: 254 254 336
Width: 984
VWidth: 0
Flags: MW
LayerCount: 2
Fore
SplineSet
93 -374 m 1
 98 -335 l 1
 248 -313 l 1
 248 1190 l 1
 97 1221 l 1
 100 1252 l 1
 339 1272 l 1
 347 1262 l 1
 347 848 l 1
 337 734 l 1
 345 734 l 1
 396 804 497 899 628 899 c 0
 800 899 925 760 925 467 c 0
 925 183 749 -20 496 -20 c 0
 467 -20 418 -16 385 -9 c 1
 380 63 l 1
 426 45 470 40 549 40 c 0
 687 40 824 171 824 414 c 0
 824 644 750 818 568 818 c 0
 468 818 402 739 345 680 c 1
 345 -315 l 1
 500 -333 l 1
 493 -374 l 1
 93 -374 l 1
EndSplineSet
Colour: ffffff
EndChar

StartChar: three
Encoding: 51 51 337
Width: 1000
VWidth: 0
Flags: MW
LayerCount: 2
Fore
SplineSet
138 106 m 1
 177 333 l 1
 227 323 l 1
 233 136 l 1
 266 78 357 15 462 15 c 0
 610 15 724 121 724 287 c 0
 724 468 571 556 383 565 c 1
 381 599 l 1
 479 653 671 740 671 939 c 0
 671 1037 615 1156 492 1156 c 0
 388 1156 335 1102 299 1054 c 1
 260 854 l 1
 215 864 l 1
 220 1093 l 1
 274 1139 359 1207 537 1207 c 0
 681 1207 793 1103 793 957 c 0
 793 795 662 682 541 637 c 1
 541 628 l 1
 719 602 841 486 841 332 c 0
 841 114 641 -36 444 -36 c 0
 298 -36 184 23 138 106 c 1
EndSplineSet
Substitution2: "'sups' Superscript lookup 0 subtable" three.superior
Colour: ffffff
EndChar

StartChar: three.osf
Encoding: 65550 -1 338
Width: 742
VWidth: 0
Flags: MW
LayerCount: 2
Fore
SplineSet
9 -112 m 0
 9 -65 52 -12 100 -9 c 1
 129 -158 202 -229 332 -229 c 0
 480 -229 568 -113 568 17 c 0
 568 222 413 298 220 307 c 1
 218 340 l 1
 327 391 508 496 508 665 c 0
 508 778 463 893 325 893 c 0
 221 893 154 787 118 674 c 1
 63 692 l 1
 102 823 202 967 380 967 c 0
 522 967 626 853 626 704 c 0
 626 544 490 421 378 375 c 1
 378 371 l 1
 520 362 679 238 679 66 c 0
 679 -124 499 -292 299 -292 c 0
 172 -292 9 -225 9 -112 c 0
EndSplineSet
Colour: ffffff
EndChar

StartChar: threequarters
Encoding: 190 190 339
Width: 1739
VWidth: 0
Flags: HMW
LayerCount: 2
Fore
SplineSet
15 644 m 1
 52 786 l 1
 96 781 l 1
 100 662 l 1
 120 628 176 591 239 591 c 0
 327 591 395 653 395 750 c 0
 395 856 265 914 153 919 c 1
 152 939 l 1
 197 959 349 1014 349 1130 c 0
 349 1187 309 1257 242 1257 c 0
 186 1257 158 1249 138 1225 c 1
 107 1100 l 1
 57 1106 l 1
 61 1245 l 1
 95 1279 169 1309 283 1309 c 0
 375 1309 456 1244 456 1153 c 0
 456 1052 364 992 279 964 c 1
 279 958 l 1
 409 942 498 861 498 766 c 0
 498 632 358 539 220 539 c 0
 118 539 47 583 15 644 c 1
205 -43 m 1
 551 588 l 1
 867 1212 l 1
 964 1207 l 1
 961 1203 l 1
 630 591 l 1
 306 -47 l 1
 205 -43 l 1
590 231 m 1
 973 723 l 1
 1017 716 l 1
 1011 645 1009 529 1009 420 c 2
 1009 277 l 1
 1157 277 l 1
 1148 202 l 1
 1009 202 l 1
 1009 64 l 1
 1126 45 l 1
 1120 -1 l 1
 746 -1 l 1
 752 41 l 1
 916 68 l 1
 916 205 l 1
 599 205 l 1
 590 231 l 1
696 277 m 1
 914 277 l 1
 914 557 l 1
 696 277 l 1
EndSplineSet
Colour: ffffff
EndChar

StartChar: three.superior
Encoding: 179 179 340
Width: 665
VWidth: 0
Flags: HMW
LayerCount: 2
Fore
SplineSet
90 632 m 1
 127 774 l 1
 171 769 l 1
 175 650 l 1
 195 616 251 579 314 579 c 0
 402 579 470 641 470 738 c 0
 470 844 340 902 228 907 c 1
 227 927 l 1
 272 947 424 1002 424 1118 c 0
 424 1175 384 1245 317 1245 c 0
 261 1245 233 1237 213 1213 c 1
 182 1088 l 1
 132 1094 l 1
 136 1233 l 1
 170 1267 244 1297 358 1297 c 0
 450 1297 531 1232 531 1141 c 0
 531 1040 439 980 354 952 c 1
 354 946 l 1
 484 930 573 849 573 754 c 0
 573 620 433 527 295 527 c 0
 193 527 122 571 90 632 c 1
EndSplineSet
Colour: ffffff
EndChar

StartChar: tilde
Encoding: 732 732 341
Width: 946
VWidth: 0
Flags: MW
LayerCount: 2
Fore
SplineSet
123 1383 m 5
 123 1383 156 1555 281 1518 c 6
 462 1464 l 6
 535 1442 558 1531 558 1531 c 5
 592 1529 l 5
 592 1529 553 1358 426 1395 c 6
 250 1447 l 6
 186 1467 151 1371 151 1371 c 5
 123 1383 l 5
EndSplineSet
Colour: ffffff
EndChar

StartChar: trademark
Encoding: 8482 8482 342
Width: 1131
VWidth: 0
Flags: MW
LayerCount: 2
Fore
SplineSet
620 684 m 1
 622 709 l 1
 697 723 l 1
 735 1203 l 1
 652 1218 l 1
 655 1244 l 1
 819 1244 l 1
 851 1159 l 1
 974 794 l 1
 1133 1179 l 1
 1160 1244 l 1
 1327 1244 l 1
 1325 1218 l 1
 1247 1204 l 1
 1272 720 l 1
 1353 712 l 1
 1352 684 l 1
 1134 684 l 1
 1137 709 l 1
 1214 723 l 1
 1188 1200 l 1
 989 713 l 1
 947 709 l 1
 773 1192 l 1
 738 720 l 1
 819 712 l 1
 816 684 l 1
 620 684 l 1
87 1244 m 1
 612 1244 l 1
 596 1095 l 1
 554 1097 l 1
 546 1211 l 1
 379 1211 l 1
 379 727 l 1
 459 715 l 1
 454 684 l 1
 230 684 l 1
 232 713 l 1
 311 727 l 1
 311 1211 l 1
 151 1211 l 1
 135 1096 l 1
 92 1099 l 1
 87 1244 l 1
EndSplineSet
Colour: ffffff
EndChar

StartChar: two
Encoding: 50 50 343
Width: 1000
VWidth: 0
Flags: MW
LayerCount: 2
Back
SplineSet
596.216 0 m 5
 65.9375 0 l 5
 61.7734 70.7969 l 5
 225.577 213.083 l 6
 269.304 250.563 269.304 250.563 297.066 276.245 c 132
 315.575 293.364 336.977 315.113 361.27 341.487 c 132
 385.562 367.863 404.649 391.925 418.531 413.673 c 132
 432.413 435.42 444.444 460.061 454.624 487.592 c 132
 464.803 515.124 469.894 542.541 469.894 569.842 c 4
 469.894 686.91 422.465 745.213 327.607 744.75 c 4
 251.721 744.75 190.642 685.983 144.368 568.453 c 5
 87.4541 589.275 l 5
 94.3945 618.89 106.311 648.388 123.2 677.771 c 132
 140.089 707.153 160.449 733.875 184.278 757.938 c 132
 208.109 781.999 236.219 801.549 268.61 816.588 c 132
 301 831.626 334.547 839.146 369.251 839.146 c 4
 443.75 839.146 500.201 818.554 538.607 777.371 c 132
 577.014 736.189 596.216 677.192 596.216 600.38 c 4
 596.216 576.319 592.746 552.258 585.805 528.196 c 132
 578.864 504.135 570.304 481.925 560.124 461.564 c 132
 549.943 441.205 536.525 419.919 519.868 397.708 c 132
 503.209 375.498 487.245 356.18 471.976 339.753 c 132
 456.706 323.326 438.197 304.934 416.449 284.573 c 132
 394.701 264.214 376.309 247.788 361.27 235.294 c 132
 338.712 216.555 338.712 216.555 305.396 188.79 c 132
 272.08 161.026 272.08 161.026 256.811 147.839 c 6
 193.649 93.0078 l 5
 520.562 93.0078 l 5
 587.193 216.555 l 5
 635.085 209.612 l 5
 596.216 0 l 5
EndSplineSet
Fore
SplineSet
100 46 m 1
 340 256 l 2
 621 501 734 636 734 863 c 0
 734 1017 652 1151 495 1151 c 0
 366 1151 296 1099 263 1054 c 1
 218 834 l 1
 182 841 l 1
 188 1093 l 1
 238 1139 358 1207 520 1207 c 0
 710 1207 860 1104 860 854 c 0
 860 606 671 450 317 154 c 2
 235 85 l 1
 779 85 l 1
 866 354 l 1
 906 348 l 1
 860 0 l 1
 106 0 l 1
 100 46 l 1
EndSplineSet
Substitution2: "'sups' Superscript lookup 0 subtable" two.superior
Colour: ffffff
EndChar

StartChar: two.osf
Encoding: 65551 -1 344
Width: 815
VWidth: 0
Flags: MW
LayerCount: 2
Fore
SplineSet
66 46 m 1
 307 256 l 2
 446 377 576 483 576 698 c 0
 576 802 518 897 408 897 c 0
 290 897 192 778 159 649 c 1
 103 668 l 1
 135 827 281 969 435 969 c 0
 595 969 698 869 698 691 c 0
 698 473 489 324 284 154 c 2
 203 85 l 1
 655 85 l 1
 734 290 l 1
 773 281 l 1
 734 0 l 1
 73 0 l 1
 66 46 l 1
EndSplineSet
Colour: ffffff
EndChar

StartChar: two.superior
Encoding: 178 178 345
Width: 640
VWidth: 0
Flags: HMW
LayerCount: 2
Fore
SplineSet
58 613 m 5
 209 738 l 6
 372 874 437 948 437 1074 c 4
 437 1159 390 1234 299 1234 c 4
 224 1234 193 1227 174 1213 c 5
 148 1063 l 5
 106 1067 l 5
 111 1226 l 5
 143 1256 222 1290 327 1290 c 4
 450 1290 548 1228 548 1077 c 4
 548 927 425 833 195 654 c 6
 191 651 l 5
 507 651 l 5
 551 799 l 5
 586 796 l 5
 566 566 l 5
 61 566 l 5
 58 613 l 5
EndSplineSet
Colour: ffffff
EndChar

StartChar: u
Encoding: 117 117 346
Width: 1023
VWidth: 0
Flags: MW
LayerCount: 2
Fore
SplineSet
87 816 m 1
 91 843 l 1
 321 863 l 1
 329 854 l 1
 329 317 l 2
 329 140 395 59 516 59 c 0
 607 59 697 126 744 183 c 1
 744 786 l 1
 589 816 l 1
 591 843 l 1
 828 863 l 1
 835 854 l 1
 835 230 l 2
 835 131 839 65 926 50 c 2
 988 37 l 1
 982 3 l 1
 962 -6 922 -18 880 -18 c 0
 798 -18 755 47 755 117 c 2
 755 133 l 1
 744 133 l 1
 675 31 573 -24 475 -24 c 0
 326 -24 242 68 242 283 c 2
 242 786 l 1
 87 816 l 1
EndSplineSet
Colour: ffffff
EndChar

StartChar: underscore
Encoding: 95 95 358
Width: 898
VWidth: 0
Flags: MW
LayerCount: 2
Fore
SplineSet
29 -133 m 1
 40 -66 l 1
 868 -66 l 1
 860 -133 l 1
 29 -133 l 1
EndSplineSet
Colour: ffffff
EndChar

StartChar: Germandbls
Encoding: 7838 7838 359
Width: 1285
VWidth: 0
Flags: MW
LayerCount: 2
Fore
SplineSet
118 0 m 1
 123 42 l 1
 293 72 l 1
 293 763 l 2
 293 1119 462 1271 761 1271 c 0
 951 1271 1198 1187 1198 1062 c 0
 1198 1008 1170 984 1115 966 c 1
 1094 1074 1015 1194 879 1194 c 0
 794 1194 672 1118 672 964 c 0
 672 652 1257 614 1257 308 c 0
 1257 119 1102 -26 854 -26 c 0
 710 -26 590 37 526 116 c 1
 555 401 l 1
 604 393 l 1
 630 174 l 1
 675 87 794 37 907 37 c 0
 1031 37 1148 113 1148 262 c 0
 1148 545 574 588 574 918 c 0
 574 1034 643 1180 785 1213 c 1
 786 1218 l 1
 766 1221 718 1221 698 1221 c 0
 498 1221 396 1043 396 786 c 2
 396 0 l 1
 118 0 l 1
EndSplineSet
Colour: ffffff
EndChar

StartChar: Germandbls.alt
Encoding: 65552 -1 360
Width: 1285
VWidth: 0
Flags: MW
LayerCount: 2
Fore
SplineSet
118 0 m 1
 123 42 l 1
 293 72 l 1
 293 763 l 2
 293 1119 462 1271 761 1271 c 0
 927 1271 1096 1253 1156 1233 c 1
 1156 1202 l 1
 809 736 l 1
 947 651 1257 528 1257 308 c 0
 1257 119 1102 -26 854 -26 c 0
 710 -26 590 37 526 116 c 1
 555 401 l 1
 604 393 l 1
 630 174 l 1
 675 87 794 37 907 37 c 0
 1031 37 1148 113 1148 262 c 0
 1148 459 861 576 701 680 c 1
 680 721 l 1
 1019 1171 l 1
 1019 1174 l 1
 944 1203 791 1221 698 1221 c 0
 498 1221 396 1043 396 786 c 2
 396 0 l 1
 118 0 l 1
EndSplineSet
Colour: ffffff
EndChar

StartChar: Germandbls.alt2
Encoding: 65553 -1 361
Width: 1285
VWidth: 0
Flags: MW
LayerCount: 2
Fore
SplineSet
118 0 m 1
 123 42 l 1
 293 72 l 1
 293 763 l 2
 293 1119 462 1271 761 1271 c 0
 951 1271 1116 1243 1169 1161 c 1
 1136 851 l 1
 1090 858 l 1
 1063 1101 l 1
 1017 1160 973 1203 879 1203 c 0
 794 1203 672 1118 672 964 c 0
 672 629 1257 616 1257 308 c 0
 1257 119 1102 -26 854 -26 c 0
 710 -26 590 37 526 116 c 1
 555 401 l 1
 604 393 l 1
 630 174 l 1
 675 87 794 37 907 37 c 0
 1031 37 1148 113 1148 262 c 0
 1148 545 574 578 574 918 c 0
 574 1034 643 1180 785 1213 c 1
 786 1218 l 1
 766 1221 718 1221 698 1221 c 0
 498 1221 396 1043 396 786 c 2
 396 0 l 1
 118 0 l 1
EndSplineSet
Colour: ffffff
EndChar

StartChar: uniF001
Encoding: 61441 61441 362
Width: 1181
VWidth: 0
Flags: MW
LayerCount: 2
Fore
SplineSet
105 0 m 1
 118 30 l 1
 268 59 l 1
 268 773 l 1
 120 773 l 1
 132 808 l 1
 271 830 l 1
 277 1177 447 1304 589 1304 c 0
 695 1304 758 1251 758 1194 c 0
 758 1155 743 1134 710 1121 c 1
 674 1180 619 1241 532 1241 c 0
 450 1241 371 1146 371 982 c 2
 371 824 l 1
 627 824 l 1
 616 773 l 1
 371 773 l 1
 371 61 l 1
 616 39 l 1
 609 0 l 1
 105 0 l 1
736 0 m 1
 750 31 l 1
 899 59 l 1
 899 788 l 1
 746 816 l 1
 750 843 l 1
 986 863 l 1
 993 854 l 1
 993 59 l 1
 1153 33 l 1
 1142 0 l 1
 736 0 l 1
880 1193 m 0
 880 1256 899 1290 942 1290 c 0
 985 1290 1006 1257 1006 1193 c 0
 1006 1127 989 1091 943 1091 c 0
 897 1091 880 1129 880 1193 c 0
EndSplineSet
Colour: ffffff
EndChar

StartChar: uniF002
Encoding: 61442 61442 363
Width: 1163
VWidth: 0
Flags: MW
LayerCount: 2
Fore
SplineSet
721 0 m 1
 731 31 l 1
 884 59 l 1
 884 1194 l 1
 731 1223 l 1
 731 1251 l 1
 969 1271 l 1
 976 1262 l 1
 976 59 l 1
 1138 33 l 1
 1127 0 l 1
 721 0 l 1
105 0 m 1
 118 30 l 1
 268 59 l 1
 268 773 l 1
 120 773 l 1
 132 808 l 1
 271 830 l 1
 271 1193 407 1304 516 1304 c 0
 585 1304 641 1282 641 1225 c 0
 641 1186 625 1164 592 1151 c 1
 556 1210 521 1241 464 1241 c 0
 418 1241 371 1146 371 982 c 2
 371 824 l 1
 627 824 l 1
 616 773 l 1
 371 773 l 1
 371 61 l 1
 616 39 l 1
 609 0 l 1
 105 0 l 1
EndSplineSet
Colour: ffffff
EndChar

StartChar: v
Encoding: 118 118 366
Width: 938
VWidth: 0
Flags: MW
LayerCount: 2
Fore
SplineSet
66 813 m 1
 70 848 l 1
 435 848 l 1
 432 816 l 1
 286 783 l 1
 516 129 l 1
 749 782 l 1
 589 813 l 1
 597 848 l 1
 931 848 l 1
 925 816 l 1
 816 783 l 1
 526 -11 l 1
 475 -26 l 1
 188 782 l 1
 66 813 l 1
EndSplineSet
Colour: ffffff
EndChar

StartChar: w
Encoding: 119 119 367
Width: 1238
VWidth: 0
Flags: MW
LayerCount: 2
Fore
SplineSet
46 816 m 1
 50 851 l 1
 401 851 l 1
 396 818 l 1
 262 793 l 1
 391 360 l 1
 442 166 l 1
 616 786 l 1
 706 804 l 1
 843 345 l 1
 888 152 l 1
 1073 791 l 1
 922 816 l 1
 926 851 l 1
 1256 851 l 1
 1251 818 l 1
 1142 793 l 1
 912 -9 l 1
 860 -22 l 1
 651 673 l 1
 463 -9 l 1
 408 -22 l 1
 163 791 l 1
 46 816 l 1
EndSplineSet
Colour: ffffff
EndChar

StartChar: x
Encoding: 120 120 372
Width: 909
VWidth: 0
Flags: MW
LayerCount: 2
Fore
SplineSet
13 0 m 1
 21 31 l 1
 129 57 l 1
 417 426 l 1
 154 802 l 1
 36 824 l 1
 40 858 l 1
 393 858 l 1
 386 826 l 1
 271 803 l 1
 483 503 l 1
 710 797 l 1
 571 824 l 1
 581 858 l 1
 903 858 l 1
 895 824 l 1
 790 800 l 1
 519 451 l 1
 802 54 l 1
 915 31 l 1
 909 0 l 1
 543 0 l 1
 554 29 l 1
 680 54 l 1
 455 374 l 1
 211 57 l 1
 353 33 l 1
 345 0 l 1
 13 0 l 1
EndSplineSet
Colour: ffffff
EndChar

StartChar: y
Encoding: 121 121 373
Width: 940
VWidth: 0
Flags: MW
LayerCount: 2
Fore
SplineSet
52 -286 m 0
 52 -259 60 -232 85 -211 c 1
 125 -247 167 -263 250 -263 c 0
 313 -263 384 -202 444 -48 c 2
 470 25 l 1
 200 785 l 1
 76 813 l 1
 82 848 l 1
 428 848 l 1
 426 816 l 1
 299 789 l 1
 525 167 l 1
 768 785 l 1
 639 813 l 1
 645 848 l 1
 938 848 l 1
 936 816 l 1
 835 785 l 1
 505 -53 l 2
 423 -262 348 -377 189 -377 c 0
 113 -377 52 -345 52 -286 c 0
EndSplineSet
Colour: ffffff
EndChar

StartChar: yen
Encoding: 165 165 377
Width: 1206
VWidth: 0
Flags: MW
LayerCount: 2
Fore
SplineSet
137 1207 m 5
 140 1243 l 5
 558 1243 l 5
 554 1207 l 5
 388 1181 l 5
 646 641 l 1
 884 1175 l 5
 699 1207 l 5
 701 1243 l 5
 1093 1243 l 5
 1089 1207 l 5
 960 1180 l 5
 680 577 l 1
 1039 577 l 1
 1027 531 l 1
 671 531 l 1
 671 337 l 1
 1037 337 l 1
 1026 290 l 1
 671 290 l 1
 671 67 l 1
 854 46 l 1
 845 0 l 1
 385 0 l 1
 390 42 l 1
 565 72 l 1
 565 290 l 1
 223 290 l 1
 233 337 l 1
 565 337 l 1
 565 531 l 1
 227 531 l 1
 236 577 l 1
 554 577 l 1
 277 1177 l 5
 137 1207 l 5
EndSplineSet
Colour: ffffff
EndChar

StartChar: z
Encoding: 122 122 379
Width: 898
VWidth: 0
Flags: MW
LayerCount: 2
Fore
SplineSet
139 40 m 1
 680 796 l 1
 248 796 l 1
 194 571 l 1
 159 576 l 1
 172 848 l 1
 794 848 l 1
 797 818 l 1
 255 58 l 1
 719 58 l 1
 775 275 l 1
 810 271 l 1
 791 0 l 1
 143 0 l 1
 139 40 l 1
EndSplineSet
Colour: ffffff
EndChar

StartChar: zero
Encoding: 48 48 383
Width: 1000
VWidth: 0
Flags: MW
LayerCount: 2
Fore
SplineSet
142 588 m 0
 142 960 313 1202 535 1202 c 0
 776 1202 919 969 919 588 c 0
 919 180 737 -27 537 -27 c 0
 311 -27 142 174 142 588 c 0
262 584 m 0
 262 219 384 27 538 27 c 0
 710 27 797 219 797 588 c 0
 797 913 699 1151 537 1151 c 0
 355 1151 262 913 262 584 c 0
EndSplineSet
Substitution2: "'sups' Superscript lookup 0 subtable" zero.superior
Colour: ffffff
EndChar

StartChar: zero.osf
Encoding: 65554 -1 384
Width: 1000
VWidth: 0
Flags: MW
LayerCount: 2
Fore
SplineSet
156 469 m 0
 156 708 297 967 543 967 c 0
 796 967 936 736 936 469 c 0
 936 169 753 -26 547 -26 c 0
 320 -26 156 182 156 469 c 0
274 465 m 0
 274 220 370 29 548 29 c 0
 720 29 816 206 816 469 c 0
 816 689 741 914 544 914 c 0
 329 914 274 687 274 465 c 0
EndSplineSet
Colour: ffffff
EndChar

StartChar: yen.osf
Encoding: 65555 -1 385
Width: 1206
VWidth: 0
Flags: MW
LayerCount: 2
Back
SplineSet
255.969 584.558 m 5
 255.969 50.9883 l 5
 382.152 36.0518 l 5
 378.03 1.03027 l 5
 51.502 1.03027 l 5
 53.5625 30.9023 l 5
 184.896 53.0479 l 5
 184.896 524.3 l 5
 67.9844 524.3 l 5
 71.0732 552.111 l 5
 239.488 584.558 l 5
 255.969 584.558 l 5
EndSplineSet
Fore
SplineSet
193 893 m 1
 199 927 l 1
 574 927 l 1
 571 893 l 1
 444 864 l 1
 641 418 l 1
 835 861 l 1
 698 893 l 1
 700 926 l 1
 1043 926 l 1
 1039 893 l 1
 912 863 l 1
 671 365 l 1
 1037 365 l 1
 1026 317 l 1
 671 317 l 1
 671 67 l 1
 854 46 l 1
 845 0 l 1
 385 0 l 1
 390 42 l 1
 565 72 l 1
 565 317 l 1
 223 317 l 1
 233 365 l 1
 565 365 l 1
 335 861 l 1
 193 893 l 1
223 553 m 1
 233 599 l 1
 519 599 l 9
 534 553 l 17
 223 553 l 1
736 553 m 9
 763 599 l 17
 1037 599 l 1
 1026 553 l 1
 736 553 l 9
EndSplineSet
Colour: ffffff
EndChar

StartChar: zero.superior
Encoding: 65556 -1 386
Width: 652
VWidth: 0
Flags: HM
LayerCount: 2
Fore
SplineSet
72 913 m 0
 72 1144 198 1288 347 1288 c 0
 509 1288 615 1149 615 913 c 0
 615 660 481 553 346 553 c 0
 194 553 72 656 72 913 c 0
178 912 m 0
 178 699 259 607 348 607 c 0
 448 607 508 699 508 914 c 0
 508 1103 442 1236 348 1236 c 0
 243 1236 178 1104 178 912 c 0
EndSplineSet
Colour: ffffff
EndChar

StartChar: four.superior
Encoding: 65557 -1 387
Width: 642
VWidth: 0
Flags: HM
LayerCount: 2
Fore
SplineSet
57 796 m 1
 440 1288 l 1
 484 1281 l 1
 478 1210 476 1094 476 985 c 2
 476 842 l 1
 624 842 l 1
 615 767 l 1
 476 767 l 1
 476 629 l 5
 593 610 l 1
 587 564 l 1
 213 564 l 1
 219 606 l 1
 383 633 l 5
 383 770 l 1
 66 770 l 1
 57 796 l 1
163 842 m 1
 381 842 l 1
 381 1122 l 1
 163 842 l 1
EndSplineSet
Colour: ffffff
EndChar

StartChar: five.superior
Encoding: 65558 -1 388
Width: 630
VWidth: 0
Flags: HMW
LayerCount: 2
Fore
SplineSet
98 640 m 1
 126 803 l 1
 168 797 l 1
 177 667 l 1
 216 629 252 610 298 610 c 0
 391 610 441 670 441 759 c 0
 441 866 336 952 160 938 c 1
 238 1265 l 5
 503 1292 l 5
 494 1175 l 5
 272 1165 l 5
 235 1003 l 1
 432 1024 551 896 551 778 c 0
 551 658 439 556 279 556 c 0
 214 556 153 582 98 640 c 1
EndSplineSet
Colour: ffffff
EndChar

StartChar: six.superior
Encoding: 65559 -1 389
Width: 653
VWidth: 0
Flags: HM
LayerCount: 2
Fore
SplineSet
106 833 m 0
 106 1042 242 1221 455 1295 c 5
 470 1254 l 5
 295 1168 241 1060 218 929 c 1
 222 929 l 1
 261 971 311 1003 399 1003 c 0
 524 1003 592 912 592 796 c 0
 592 664 488 553 340 553 c 0
 166 553 106 688 106 833 c 0
212 819 m 0
 212 682 285 603 356 603 c 0
 445 603 489 669 489 774 c 0
 489 871 432 934 339 934 c 0
 276 934 232 900 217 880 c 1
 213 860 212 839 212 819 c 0
EndSplineSet
Colour: ffffff
EndChar

StartChar: seven.superior
Encoding: 65560 -1 390
Width: 590
VWidth: 0
Flags: HM
LayerCount: 2
Fore
SplineSet
94 1024 m 1
 120 1267 l 1
 551 1267 l 1
 551 1214 l 1
 302 549 l 1
 193 557 l 1
 485 1164 l 1
 173 1164 l 1
 137 1021 l 1
 94 1024 l 1
EndSplineSet
Colour: ffffff
EndChar

StartChar: eight.superior
Encoding: 65561 -1 391
Width: 628
VWidth: 0
Flags: HMW
LayerCount: 2
Fore
SplineSet
113 736 m 0
 113 796 160 888 267 940 c 1
 267 943 l 1
 192 990 155 1043 155 1115 c 0
 155 1213 225 1288 344 1288 c 0
 461 1288 515 1216 515 1123 c 0
 515 1028 464 980 400 939 c 1
 399 937 l 1
 515 873 559 816 559 736 c 0
 559 622 443 553 321 553 c 0
 201 553 113 629 113 736 c 0
195 772 m 0
 195 655 273 602 345 602 c 0
 430 602 481 655 481 720 c 0
 481 787 444 824 296 921 c 1
 260 895 195 836 195 772 c 0
221 1129 m 0
 221 1066 264 1032 366 957 c 1
 401 986 442 1023 442 1092 c 0
 442 1174 381 1246 326 1246 c 0
 266 1246 221 1203 221 1129 c 0
EndSplineSet
Colour: ffffff
EndChar

StartChar: nine.superior
Encoding: 65562 -1 392
Width: 649
VWidth: 0
Flags: HM
LayerCount: 2
Fore
SplineSet
109 1048 m 0
 109 1179 204 1287 351 1287 c 0
 524 1287 575 1155 575 1015 c 0
 575 813 430 588 189 544 c 1
 177 586 l 1
 370 642 444 772 468 888 c 1
 464 888 l 1
 426 846 390 826 303 826 c 0
 178 826 109 932 109 1048 c 0
195 1067 m 0
 195 946 250 886 343 886 c 0
 406 886 462 927 477 947 c 1
 482 971 483 1005 483 1025 c 0
 483 1163 407 1237 336 1237 c 0
 247 1237 195 1173 195 1067 c 0
EndSplineSet
Colour: ffffff
EndChar

StartChar: .notdef
Encoding: 65563 -1 393
Width: 563
VWidth: 0
Flags: HW
LayerCount: 2
Fore
SplineSet
41 0 m 1
 41 1105 l 1
 482 1105 l 1
 482 0 l 1
 41 0 l 1
96 55 m 1
 427 55 l 1
 427 1050 l 1
 96 1050 l 1
 96 55 l 1
EndSplineSet
EndChar

StartChar: micro
Encoding: 181 181 394
Width: 1025
VWidth: 0
Flags: HW
LayerCount: 2
Fore
SplineSet
87 816 m 1
 91 843 l 1
 321 863 l 1
 329 854 l 1
 329 317 l 2
 329 140 395 59 516 59 c 0
 607 59 697 126 744 183 c 1
 744 786 l 1
 589 816 l 1
 591 843 l 1
 828 863 l 1
 835 854 l 1
 835 230 l 2
 835 131 839 65 926 50 c 2
 988 37 l 1
 982 3 l 1
 962 -6 922 -18 880 -18 c 0
 798 -18 755 47 755 117 c 2
 755 133 l 1
 744 133 l 1
 675 31 562 -24 475 -24 c 0
 408 -24 338 0 308 60 c 1
 302 60 l 1
 305 42 303 -21 306 -85 c 2
 317 -389 l 1
 227 -363 l 1
 230 -336 242 160 242 495 c 2
 242 786 l 1
 87 816 l 1
EndSplineSet
EndChar
